<?xml version="1.0" encoding="UTF-8"?>
<svg version="1.1" xmlns="http://www.w3.org/2000/svg" width="1080" height="651">
<path d="M0 0 C1.02222656 0.15339844 2.04445313 0.30679688 3.09765625 0.46484375 C6.54716485 0.93789948 9.96753568 1.28958146 13.4375 1.5625 C15.01337891 1.68818359 15.01337891 1.68818359 16.62109375 1.81640625 C17.40613281 1.87699219 18.19117188 1.93757812 19 2 C19 2.33 19 2.66 19 3 C20.155 3.28875 21.31 3.5775 22.5 3.875 C23.221875 4.05546875 23.94375 4.2359375 24.6875 4.421875 C25.450625 4.61265625 26.21375 4.8034375 27 5 C28.5 5.375 30 5.75 31.5 6.125 C33.2325 6.558125 33.2325 6.558125 35 7 C35 7.66 35 8.32 35 9 C35.5671875 9.13792969 36.134375 9.27585938 36.71875 9.41796875 C49.06358842 12.56759362 59.32307236 19.26718792 70 26 C70.9597876 26.59167969 70.9597876 26.59167969 71.93896484 27.1953125 C73.32909624 28.07509094 74.67177078 29.02928762 76 30 C76 30.66 76 31.32 76 32 C76.556875 32.268125 77.11375 32.53625 77.6875 32.8125 C86.11631336 37.14080956 91.54608639 43.66637574 97.79296875 50.671875 C99.77817757 53.03135419 99.77817757 53.03135419 102 54 C102 54.66 102 55.32 102 56 C102.66 56 103.32 56 104 56 C104.0825 56.78375 104.165 57.5675 104.25 58.375 C104.4975 59.24125 104.745 60.1075 105 61 C106.32467746 61.6837045 107.65863633 62.34964186 109 63 C109.68753301 64.65816784 110.35561283 66.32459336 111 68 C112.485 68.495 112.485 68.495 114 69 C115.02734375 70.890625 115.02734375 70.890625 115.9375 73.25 C117.17379794 76.26675791 118.15385365 78.18804335 120.25 80.75 C122.31096877 83.39981699 122.37433808 84.7245418 122 88 C122.66 88 123.32 88 124 88 C124 89.32 124 90.64 124 92 C124.66 92 125.32 92 126 92 C126.28875 93.216875 126.5775 94.43375 126.875 95.6875 C127.85724879 99.60957793 129.03880308 103.25783058 131 106.8125 C133.67456662 112.66311448 134.82689214 119.58169303 135 126 C134.67 126.66 134.34 127.32 134 128 C135.11375 127.814375 136.2275 127.62875 137.375 127.4375 C141 127 141 127 143 128 C144.41046115 128.19458958 145.82749496 128.34301097 147.24609375 128.46484375 C148.08333984 128.54283203 148.92058594 128.62082031 149.78320312 128.70117188 C151.54851732 128.85834849 153.31414794 129.01201184 155.08007812 129.16210938 C155.91861328 129.24138672 156.75714844 129.32066406 157.62109375 129.40234375 C158.3886499 129.46929443 159.15620605 129.53624512 159.94702148 129.60522461 C162 130 162 130 165 132 C166.9896995 132.39013716 168.99019869 132.73202649 171 133 C170.96970703 132.04714111 170.93941406 131.09428223 170.90820312 130.11254883 C170.18596981 106.78808384 169.88862977 83.47093865 169.87661743 60.13640976 C169.87499765 58.05949181 169.87143528 55.98258478 169.86743164 53.90567017 C169.86048795 49.99048679 169.86301407 46.07534451 169.8671875 42.16015625 C169.86421158 40.38164276 169.86421158 40.38164276 169.86117554 38.56719971 C169.86428741 37.48033875 169.86739929 36.39347778 169.87060547 35.27368164 C169.87140106 34.32336563 169.87219666 33.37304962 169.87301636 32.39393616 C170 30 170 30 171 27 C174.458242 25.270879 178.45725076 25.85284835 182.26391602 25.85473633 C183.22510849 25.85137772 184.18630096 25.8480191 185.17662048 25.84455872 C188.36906207 25.83502496 191.56145129 25.83310397 194.75390625 25.83203125 C196.97151206 25.82881887 199.18911766 25.82545481 201.40672302 25.82194519 C206.06485485 25.81594682 210.7229681 25.81410587 215.38110352 25.81469727 C221.33721816 25.81479859 227.29321278 25.80118038 233.24929905 25.78392506 C237.83479859 25.77277707 242.42026947 25.77077897 247.00578117 25.77130699 C249.20051421 25.77012979 251.39524805 25.76572262 253.58996773 25.75797462 C256.67016971 25.74812434 259.75011573 25.75107335 262.83032227 25.75708008 C263.72989655 25.75146057 264.62947083 25.74584106 265.55630493 25.74005127 C270.61444231 25.76498531 275.20084566 26.2962214 280.1106863 27.53060436 C282.41576106 28.10329488 284.69993687 28.39999399 287.0625 28.625 C288.361875 28.74875 289.66125 28.8725 291 29 C291 29.66 291 30.32 291 31 C292.8253125 30.9071875 292.8253125 30.9071875 294.6875 30.8125 C303.79001608 30.8125 312.64494774 33.56846068 321 37 C323.40784124 37.97395826 325.81444917 38.93214693 328.25390625 39.82421875 C335.30797675 42.4620353 341.58262345 46.08785107 348 50 C348.85335938 50.50273437 349.70671875 51.00546875 350.5859375 51.5234375 C352.91184692 52.94608112 355.11749674 54.44621699 357.3125 56.0625 C358.00988281 56.56910156 358.70726562 57.07570312 359.42578125 57.59765625 C359.94527344 58.06042969 360.46476562 58.52320313 361 59 C361 59.66 361 60.32 361 61 C361.639375 61.268125 362.27875 61.53625 362.9375 61.8125 C365 63 365 63 366 66 C366.66 66 367.32 66 368 66 C368 66.66 368 67.32 368 68 C368.99 68.33 369.98 68.66 371 69 C371 69.66 371 70.32 371 71 C371.66 71 372.32 71 373 71 C375 74 375 74 375 77 C375.99 77.33 376.98 77.66 378 78 C382.2814347 83.09535328 384.94584252 88.72340769 387 95 C387.33 95 387.66 95 388 95 C389.02155369 98.05549916 390.0367154 101.11264007 391.03515625 104.17578125 C391.37417969 105.21089844 391.71320313 106.24601562 392.0625 107.3125 C392.57490234 108.88451172 392.57490234 108.88451172 393.09765625 110.48828125 C393.76515904 112.90729072 393.76515904 112.90729072 395 114 C395.07205511 115.68608966 395.08386068 117.37500659 395.0625 119.0625 C395.05347656 119.98160156 395.04445313 120.90070313 395.03515625 121.84765625 C395.01775391 122.91306641 395.01775391 122.91306641 395 124 C395.66 124 396.32 124 397 124 C397 138.52 397 153.04 397 168 C396.34 168 395.68 168 395 168 C395.01160156 168.73605469 395.02320313 169.47210938 395.03515625 170.23046875 C395.04869141 171.69419922 395.04869141 171.69419922 395.0625 173.1875 C395.07410156 174.15042969 395.08570313 175.11335937 395.09765625 176.10546875 C394.96643361 179.99490787 394.22784376 183.31646872 393 187 C392.34 186.67 391.68 186.34 391 186 C390.87625 186.86625 390.7525 187.7325 390.625 188.625 C389.73919892 193.40832582 388.30684572 197.71585796 386 202 C385.34 202 384.68 202 384 202 C383.67 203.98 383.34 205.96 383 208 C382.34 208 381.68 208 381 208 C380.63068359 209.07701172 380.63068359 209.07701172 380.25390625 210.17578125 C378.85883684 213.31794692 377.13528193 215.55095942 374.9375 218.1875 C372.19079836 221.41282987 372.19079836 221.41282987 370 225 C369.34 225 368.68 225 368 225 C368 225.66 368 226.32 368 227 C367.34 227 366.68 227 366 227 C365.67 227.99 365.34 228.98 365 230 C364.34 230 363.68 230 363 230 C363 230.66 363 231.32 363 232 C362.34 232 361.68 232 361 232 C361 232.66 361 233.32 361 234 C356.61538462 237 356.61538462 237 354 237 C354 237.66 354 238.32 354 239 C351.4385343 241.29648649 350.52032428 242 347 242 C347 242.66 347 243.32 347 244 C340.96586245 247.36187663 334.88665306 250.64159259 328.75 253.8125 C327.63109375 254.39644531 326.5121875 254.98039063 325.359375 255.58203125 C321.84797431 257.06416898 318.75964659 257.50980684 315 258 C314.01 258.66 313.02 259.32 312 260 C285.27749812 269.69230245 254.75581048 267.47596489 226.85107422 267.39111328 C221.08095365 267.37377474 215.31124428 267.3840547 209.5411377 267.40183067 C205.07518353 267.41262836 200.60932859 267.409245 196.14337158 267.4014473 C194.01263377 267.39944688 191.88188696 267.401899 189.75115967 267.40888596 C186.80130628 267.41646084 183.85214513 267.40496365 180.90234375 267.38818359 C180.02465836 267.39425629 179.14697296 267.40032898 178.24269104 267.40658569 C175.82397461 267.38095093 175.82397461 267.38095093 172 267 C169.41169255 263.11753882 169.71931171 259.88726054 169.74121094 255.38525391 C169.73595398 254.0652816 169.73595398 254.0652816 169.73059082 252.71864319 C169.7217759 249.80453645 169.72762285 246.8906718 169.734375 243.9765625 C169.73302804 241.95258538 169.73108725 239.92860858 169.72857666 237.90463257 C169.72562552 233.6593722 169.72992185 229.41419592 169.73925781 225.16894531 C169.75063776 219.72922868 169.74410202 214.28970972 169.73211288 208.85000038 C169.72488162 204.66869623 169.7271883 200.48743884 169.73236847 196.30613327 C169.73370221 194.3006831 169.73206688 192.29522868 169.72740936 190.28978348 C169.72232501 187.48425328 169.73008197 184.67904166 169.74121094 181.87353516 C169.73716248 181.04530746 169.73311401 180.21707977 169.72894287 179.36375427 C169.73458252 178.59552841 169.74022217 177.82730255 169.74603271 177.03579712 C169.74716379 176.04195731 169.74716379 176.04195731 169.74831772 175.02803993 C170 173 170 173 172 168 C187.84 167.01 187.84 167.01 204 166 C203.67 165.34 203.34 164.68 203 164 C204.12019531 164.01160156 205.24039063 164.02320313 206.39453125 164.03515625 C207.86718583 164.04453622 209.33984222 164.0536362 210.8125 164.0625 C211.55048828 164.07087891 212.28847656 164.07925781 213.04882812 164.08789062 C216.29922068 164.10259828 218.89404895 164.03531702 222 163 C222.33 162.34 222.66 161.68 223 161 C226.875 161.875 226.875 161.875 228 163 C228.0935919 164.71865409 228.11744611 166.44115744 228.11352539 168.16235352 C228.11344986 169.26341934 228.11337433 170.36448517 228.11329651 171.49891663 C228.10813522 172.6968132 228.10297394 173.89470978 228.09765625 175.12890625 C228.09553383 176.95795753 228.09553383 176.95795753 228.09336853 178.82395935 C228.08774967 182.7368307 228.07519396 186.64964581 228.0625 190.5625 C228.05748743 193.20768147 228.0529241 195.85286383 228.04882812 198.49804688 C228.03777411 204.99871726 228.02101764 211.49935461 228 218 C258.0121684 217.3352897 258.0121684 217.3352897 288 216 C288.33 215.01 288.66 214.02 289 213 C291.1171875 212.26171875 291.1171875 212.26171875 293.875 211.6875 C299.42235786 210.33873064 303.88562449 208.09613821 308.78515625 205.20703125 C311 204 311 204 313 204 C313 203.34 313 202.68 313 202 C313.825 201.484375 314.65 200.96875 315.5 200.4375 C327.78758861 192.55489599 335.48086063 176.44726568 338.53125 162.5859375 C338.84624238 160.03974913 338.95545227 157.56663458 339 155 C339.01369629 154.33274902 339.02739258 153.66549805 339.04150391 152.97802734 C339.46194664 135.59988687 339.46194664 135.59988687 335 119 C334.54947266 117.77603516 334.54947266 117.77603516 334.08984375 116.52734375 C328.46123735 101.41897921 316.62610044 91.72004942 302.1953125 84.95703125 C295.96134052 82.23937443 289.67620803 81.11666113 283 80 C282.67 79.01 282.34 78.02 282 77 C280.72125 77.020625 279.4425 77.04125 278.125 77.0625 C274.25 77.125 274.25 77.125 272 76 C270.58117119 75.88252522 269.15728586 75.82314572 267.73388672 75.79467773 C266.84080811 75.77449585 265.94772949 75.75431396 265.02758789 75.73352051 C264.08778076 75.71704468 263.14797363 75.70056885 262.1796875 75.68359375 C261.31674072 75.66494263 260.45379395 75.6462915 259.56469727 75.6270752 C256.33490433 75.55867258 253.10493951 75.49859092 249.875 75.4375 C242.65625 75.293125 235.4375 75.14875 228 75 C228 98.1 228 121.2 228 145 C229.65 144.67 231.3 144.34 233 144 C235.67578125 144.77734375 235.67578125 144.77734375 238.3125 145.9375 C239.19550781 146.31777344 240.07851563 146.69804687 240.98828125 147.08984375 C241.65214844 147.39019531 242.31601562 147.69054687 243 148 C243 149.65 243 151.3 243 153 C238.17597463 155.41201268 233.27808213 155.54470218 228 156 C224.60657296 156.35380644 224.60657296 156.35380644 222 157 C221.67 157.66 221.34 158.32 221 159 C220.41210693 159.02505615 219.82421387 159.0501123 219.21850586 159.07592773 C213.42309131 159.32515034 207.62860571 159.59025235 201.83447266 159.86767578 C199.38339046 159.98210184 196.93219395 160.08431318 194.48046875 160.18359375 C192.57201172 160.27833984 192.57201172 160.27833984 190.625 160.375 C188.97371094 160.44847656 188.97371094 160.44847656 187.2890625 160.5234375 C183.87450663 160.88137738 183.87450663 160.88137738 180.42578125 162.47265625 C174.69523656 164.76707501 168.66205443 164.74288738 162.5625 165.0625 C160.20915228 165.19063376 157.85622764 165.32688989 155.50390625 165.47265625 C154.47080322 165.52687744 153.4377002 165.58109863 152.37329102 165.63696289 C151.59010498 165.75676514 150.80691895 165.87656738 150 166 C149.67 166.66 149.34 167.32 149 168 C146.68676758 168.39477539 146.68676758 168.39477539 143.64453125 168.59765625 C142.54689453 168.67693359 141.44925781 168.75621094 140.31835938 168.83789062 C138.58295898 168.94907227 138.58295898 168.94907227 136.8125 169.0625 C134.54801754 169.21774214 132.28368734 169.37522462 130.01953125 169.53515625 C128.50516479 169.63389038 128.50516479 169.63389038 126.96020508 169.73461914 C123.93640408 170.00570134 120.99200514 170.4932117 118 171 C116.33372702 171.03622333 114.66594626 171.04899842 113 171 C112.67 171.66 112.34 172.32 112 173 C109.19921875 173.37890625 109.19921875 173.37890625 105.6875 173.5625 C101.17057335 173.75795651 101.17057335 173.75795651 96.76953125 174.65234375 C95 175 95 175 92 173 C92.16153564 172.18394287 92.32307129 171.36788574 92.48950195 170.52709961 C93.06884204 166.52436107 93.16203344 162.60072341 93.16796875 158.56640625 C93.17129715 157.77024399 93.17462555 156.97408173 93.17805481 156.15379333 C93.18309625 154.47712783 93.185464 152.80045238 93.18530273 151.1237793 C93.18749023 148.57388642 93.20567814 146.02442595 93.22460938 143.47460938 C93.22754378 141.83854313 93.22952826 140.20247485 93.23046875 138.56640625 C93.24124702 137.43483849 93.24124702 137.43483849 93.25224304 136.28041077 C93.23179534 131.4893899 92.51296007 127.55087297 91 123 C90.67 123 90.34 123 90 123 C89.896875 121.7625 89.79375 120.525 89.6875 119.25 C89.23045856 115.56148246 88.30571022 113.92647835 86 111 C85.52710903 109.65778253 85.09465218 108.30109844 84.6875 106.9375 C81.73961898 97.65319431 76.41910422 89.88972967 70.5390625 82.21484375 C69 80 69 80 69 78 C68.34 78 67.68 78 67 78 C65.28769752 76.38025441 63.62836738 74.7041054 62 73 C61.154375 72.154375 60.30875 71.30875 59.4375 70.4375 C53 64 53 64 50.4375 61.3125 C48.14889706 58.81433824 48.14889706 58.81433824 45 58 C45 57.34 45 56.68 45 56 C42.36095629 54.58622659 39.92879371 53.62759865 37 53 C37 52.34 37 51.68 37 51 C34.03 50.505 34.03 50.505 31 50 C31 49.01 31 48.02 31 47 C28.36 46.67 25.72 46.34 23 46 C23 45.34 23 44.68 23 44 C18.05 43.01 13.1 42.02 8 41 C8 40.34 8 39.68 8 39 C7.34 39 6.68 39 6 39 C3.71937172 35.57905758 3.78074993 34.31812778 3.875 30.3125 C3.89304687 29.31863281 3.91109375 28.32476562 3.9296875 27.30078125 C3.95289063 26.54152344 3.97609375 25.78226563 4 25 C3.34 25 2.68 25 2 25 C-0.64381296 20.05586159 -0.22504028 15.13199976 -0.125 9.6875 C-0.11597656 8.75615234 -0.10695313 7.82480469 -0.09765625 6.86523438 C-0.07418263 4.5765564 -0.04134729 2.28841328 0 0 Z " fill="#CCF301" transform="translate(436,175)"/>
<path d="M0 0 C0.67423272 -0.00241442 1.34846543 -0.00482883 2.04312944 -0.00731641 C4.30713049 -0.01296165 6.57085041 -0.00428421 8.83483887 0.00431824 C10.45600969 0.00324556 12.07718014 0.00130709 13.698349 -0.00143433 C18.10529478 -0.00628807 22.51213954 0.00137965 26.9190731 0.01151872 C31.52612573 0.02029103 36.1331751 0.01854193 40.74023438 0.01815796 C48.47767837 0.019095 56.21508318 0.02778427 63.95251465 0.04142761 C72.90422632 0.05715354 81.85589508 0.06242573 90.80761957 0.06169206 C99.41093194 0.06108211 108.01423029 0.06618453 116.61753845 0.07448387 C120.28254811 0.07801867 123.94755281 0.0798474 127.61256409 0.08037758 C131.92662698 0.08138071 136.2406537 0.08747494 140.55470467 0.09754372 C142.14020122 0.10046929 143.72570194 0.10169397 145.3112011 0.10111618 C147.47109658 0.10062685 149.63089017 0.10626776 151.79077148 0.11352539 C153.00087639 0.11520123 154.21098129 0.11687708 155.45775604 0.11860371 C158.39538574 0.24723816 158.39538574 0.24723816 161.39538574 1.24723816 C161.39538574 16.75723816 161.39538574 32.26723816 161.39538574 48.24723816 C159.02889692 49.43048257 157.61807254 49.37049862 154.97885132 49.36749268 C153.58639191 49.36955467 153.58639191 49.36955467 152.165802 49.37165833 C151.14441132 49.36806305 150.12302063 49.36446777 149.07067871 49.36076355 C147.46090149 49.36098259 147.46090149 49.36098259 145.81860352 49.36120605 C142.25823979 49.36050733 138.69792787 49.35271677 135.13757324 49.34489441 C132.6742048 49.34303009 130.21083599 49.34160625 127.74746704 49.34060669 C121.25371279 49.33678262 114.75998079 49.32695327 108.26623535 49.31590271 C100.48025485 49.30389098 92.69426651 49.29928582 84.90827942 49.2934494 C73.0706327 49.28374147 61.23303484 49.26458411 49.39538574 49.24723816 C49.39538574 66.07723816 49.39538574 82.90723816 49.39538574 100.24723816 C50.05538574 99.91723816 50.71538574 99.58723816 51.39538574 99.24723816 C54.10036397 99.1436597 56.77978858 99.10042999 59.48522949 99.10197449 C60.32111603 99.09861588 61.15700256 99.09525726 62.01821899 99.09179688 C64.78978956 99.08227378 67.56129982 99.0803432 70.33288574 99.07926941 C72.25337754 99.0760582 74.17386908 99.07269423 76.09436035 99.06918335 C80.12276782 99.06318897 84.15115382 99.06134381 88.17956543 99.06193542 C93.35167492 99.06203716 98.52364749 99.04837441 103.69572449 99.03116322 C107.66244138 99.0200681 111.62912489 99.01801543 115.59585571 99.01854515 C117.50331088 99.01736167 119.41076682 99.01291946 121.31820679 99.00521278 C123.98075073 98.99546128 126.64299363 98.99827144 129.30554199 99.00431824 C130.09937286 98.99869873 130.89320374 98.99307922 131.71109009 98.98728943 C137.16706907 99.01892148 137.16706907 99.01892148 139.39538574 101.24723816 C139.6653048 103.93563201 139.48275931 106.53865752 139.39538574 109.24723816 C138.40538574 109.74223816 138.40538574 109.74223816 137.39538574 110.24723816 C137.35780151 111.87520325 137.35780151 111.87520325 137.31945801 113.53605652 C137.22554819 117.54855415 137.12528808 121.56087198 137.02307129 125.57316589 C136.97966001 127.31238104 136.93798962 129.05164051 136.89807129 130.79093933 C136.84051806 133.28562304 136.77678154 135.78008226 136.71179199 138.27458191 C136.6950795 139.05687668 136.678367 139.83917145 136.66114807 140.64517212 C136.50925745 146.13336645 136.50925745 146.13336645 135.39538574 147.24723816 C132.74800485 147.34235082 130.12679574 147.37279451 127.47912598 147.36076355 C126.64992645 147.36090958 125.82072693 147.3610556 124.96640015 147.36120605 C122.21223376 147.36050667 119.45813413 147.35271309 116.70397949 147.34489441 C114.79968808 147.34303032 112.89539619 147.34160637 110.99110413 147.34060669 C105.96870611 147.33678079 100.94633683 147.32694989 95.9239502 147.31590271 C89.90343062 147.30389591 83.88290146 147.29928669 77.86237335 147.2934494 C68.70669081 147.28373817 59.55107135 147.26458212 50.39538574 147.24723816 C50.39538574 162.09723816 50.39538574 176.94723816 50.39538574 192.24723816 C53.72237549 192.24200134 57.04936523 192.23676453 60.47717285 192.23136902 C71.44152223 192.21483568 82.40587215 192.20376797 93.37023067 192.19542599 C100.02112104 192.19019642 106.6719936 192.18309744 113.32287598 192.17179871 C119.73541451 192.16097245 126.14794078 192.15496188 132.56048775 192.15236092 C135.01302852 192.15050619 137.46556859 192.14688469 139.91810417 192.1415081 C143.34015251 192.13430114 146.76214945 192.13324707 150.1842041 192.13371277 C151.72168304 192.12831985 151.72168304 192.12831985 153.29022217 192.12281799 C154.21715378 192.12419266 155.14408539 192.12556732 156.09910583 192.12698364 C156.90936187 192.12606185 157.7196179 192.12514006 158.55442715 192.12419033 C160.39538574 192.24723816 160.39538574 192.24723816 161.39538574 193.24723816 C161.48842592 194.72078164 161.51284839 196.19874407 161.50891113 197.67521667 C161.5088356 198.61611649 161.50876007 199.5570163 161.50868225 200.52642822 C161.50094032 202.06078773 161.50094032 202.06078773 161.49304199 203.62614441 C161.49091957 205.18884315 161.49091957 205.18884315 161.48875427 206.78311157 C161.48313654 210.1253491 161.47058104 213.46752073 161.45788574 216.80973816 C161.45287303 219.06950282 161.44830972 221.32926853 161.44421387 223.58903503 C161.43316135 229.14179207 161.41640598 234.69451041 161.39538574 240.24723816 C157.98345755 241.38454756 155.38305494 241.37310168 151.78404236 241.3742218 C151.10910408 241.37578179 150.43416579 241.37734178 149.73877484 241.37894905 C147.47251564 241.38294427 145.20632319 241.37977512 142.94006348 241.37663269 C141.31727051 241.37798737 139.69447786 241.37976768 138.07168579 241.38194275 C133.66070516 241.38650874 129.24974786 241.38473103 124.83876681 241.38156366 C120.22857521 241.37903621 115.61838565 241.38137864 111.00819397 241.38294983 C103.26656738 241.38477021 95.52495033 241.38236846 87.7833252 241.37760925 C78.82364337 241.37216497 69.86398429 241.37393103 60.90430301 241.37943566 C53.22019647 241.38396823 45.53609678 241.38461668 37.85198933 241.38199699 C33.25881487 241.38043526 28.66565112 241.38023765 24.07247734 241.38353348 C19.75596039 241.38641434 15.43947289 241.38443251 11.12295914 241.37863922 C9.53542823 241.37731287 7.94789486 241.37770364 6.36036491 241.37990189 C4.20012457 241.38261821 2.03997968 241.37922634 -0.12025452 241.3742218 C-1.33128121 241.37384478 -2.54230791 241.37346775 -3.79003239 241.3730793 C-6.60461426 241.24723816 -6.60461426 241.24723816 -8.60461426 240.24723816 C-9.96256414 233.81123496 -9.75168446 226.95543452 -9.74505615 220.40238953 C-9.74802727 219.46420647 -9.7509984 218.52602342 -9.75405955 217.55941057 C-9.76266859 214.44427611 -9.76424806 211.32918041 -9.76574707 208.21403503 C-9.77038031 205.96952738 -9.77540564 203.7250205 -9.78079224 201.48051453 C-9.79385848 195.40678624 -9.80034837 189.33306897 -9.80480289 183.25932884 C-9.80773938 179.4658328 -9.81184498 175.67233975 -9.81630707 171.87884521 C-9.82839818 161.36823944 -9.83878939 150.85763543 -9.84218216 140.34702301 C-9.84240173 139.67626198 -9.84262129 139.00550094 -9.84284751 138.31441382 C-9.84306579 137.64211759 -9.84328407 136.96982137 -9.84350896 136.27715254 C-9.84395242 134.91496754 -9.84439898 133.55278253 -9.84484863 132.19059753 C-9.84507006 131.514917 -9.84529149 130.83923647 -9.84551963 130.14308077 C-9.84947811 119.16487524 -9.86697236 108.18673564 -9.89020815 97.20855564 C-9.9138903 85.92844452 -9.92612398 74.64836548 -9.92755008 63.36822557 C-9.92860055 57.0380169 -9.93456127 50.70790168 -9.95236969 44.37771606 C-9.96876595 38.43511025 -9.97104729 32.4926691 -9.96223068 26.55004883 C-9.9614561 24.36424826 -9.96585793 22.17843912 -9.97568893 19.99266052 C-9.9882794 17.02031277 -9.98260286 14.04855999 -9.97210693 11.07621765 C-9.98016334 10.20172832 -9.98821974 9.32723899 -9.99652028 8.42624998 C-9.97655106 6.02616119 -9.97655106 6.02616119 -9.60461426 2.24723816 C-5.97658854 -0.17144565 -4.31896724 -0.00194432 0 0 Z " fill="#CCF301" transform="translate(875.6046142578125,200.7527618408203)"/>
<path d="M0 0 C0.72872314 0.03915527 1.45744629 0.07831055 2.20825195 0.11865234 C7.2494679 0.4369679 7.2494679 0.4369679 8.375 1.5625 C10.37041896 1.78778924 12.36659864 2.01011095 14.3671875 2.18359375 C16.375 2.5625 16.375 2.5625 19.375 4.5625 C22.65410546 5.56048862 25.9534557 6.45027807 29.265625 7.33203125 C36.52600491 9.39264632 42.83908008 12.15336214 49.40234375 15.87890625 C52.38348072 17.62218072 52.38348072 17.62218072 55.66796875 19.078125 C58.375 20.5625 58.375 20.5625 59.75 23.75 C59.95625 24.678125 60.1625 25.60625 60.375 26.5625 C59.715 26.5625 59.055 26.5625 58.375 26.5625 C58.375 27.2225 58.375 27.8825 58.375 28.5625 C57.715 28.5625 57.055 28.5625 56.375 28.5625 C56.25125 29.09875 56.1275 29.635 56 30.1875 C55.25293984 33.0263286 54.32196636 35.78473202 53.375 38.5625 C52.715 38.5625 52.055 38.5625 51.375 38.5625 C51.375 40.2125 51.375 41.8625 51.375 43.5625 C50.715 43.5625 50.055 43.5625 49.375 43.5625 C49.189375 45.0165625 49.189375 45.0165625 49 46.5 C48.79375 47.510625 48.5875 48.52125 48.375 49.5625 C47.385 50.0575 47.385 50.0575 46.375 50.5625 C46.230625 51.325625 46.08625 52.08875 45.9375 52.875 C45.3053058 55.89548342 44.33811131 57.22186728 42.375 59.5625 C41.818125 60.305 41.26125 61.0475 40.6875 61.8125 C40.254375 62.39 39.82125 62.9675 39.375 63.5625 C32.84326593 62.93444865 32.84326593 62.93444865 30.58984375 61.14453125 C27.60981377 59.01593841 24.73582976 58.43059291 21.1875 57.5625 C19.93582031 57.253125 18.68414062 56.94375 17.39453125 56.625 C16.73340332 56.46338379 16.07227539 56.30176758 15.39111328 56.13525391 C13.375 55.5625 13.375 55.5625 11.49560547 54.78271484 C4.29432423 51.84601595 -3.11654321 52.10929657 -10.76318359 52.17138672 C-13.12005495 52.18746626 -15.47521204 52.17148095 -17.83203125 52.15234375 C-25.60856481 52.14180881 -32.37379431 52.45373841 -39.625 55.5625 C-41.0391408 56.09015293 -42.45556975 56.6117461 -43.875 57.125 C-45.12548213 57.60290703 -46.37553616 58.08193699 -47.625 58.5625 C-48.9553125 59.0575 -48.9553125 59.0575 -50.3125 59.5625 C-52.74610506 60.55298644 -52.74610506 60.55298644 -55.3125 62.1875 C-57.625 63.5625 -57.625 63.5625 -59.625 63.5625 C-60.12 65.0475 -60.12 65.0475 -60.625 66.5625 C-62.296875 67.95703125 -62.296875 67.95703125 -64.375 69.375 C-67.15194868 71.3606676 -69.38343399 73.25693885 -71.5 75.9375 C-72.20125 76.80375 -72.9025 77.67 -73.625 78.5625 C-74.285 78.5625 -74.945 78.5625 -75.625 78.5625 C-75.728125 79.119375 -75.83125 79.67625 -75.9375 80.25 C-76.76678408 83.0394101 -77.96799056 85.1764064 -79.625 87.5625 C-80.285 87.5625 -80.945 87.5625 -81.625 87.5625 C-82.44464132 91.48348688 -83.08746235 95.41475152 -83.6875 99.375 C-83.86410156 100.53644531 -84.04070312 101.69789063 -84.22265625 102.89453125 C-84.35542969 103.77496094 -84.48820312 104.65539062 -84.625 105.5625 C-84.955 105.5625 -85.285 105.5625 -85.625 105.5625 C-85.955 117.4425 -86.285 129.3225 -86.625 141.5625 C-85.965 141.5625 -85.305 141.5625 -84.625 141.5625 C-84.49222656 142.37074219 -84.35945313 143.17898438 -84.22265625 144.01171875 C-84.04605469 145.08035156 -83.86945313 146.14898437 -83.6875 147.25 C-83.51347656 148.30574219 -83.33945313 149.36148438 -83.16015625 150.44921875 C-82.69332879 153.16499604 -82.18077384 155.86374235 -81.625 158.5625 C-80.965 158.5625 -80.305 158.5625 -79.625 158.5625 C-79.33625 159.366875 -79.0475 160.17125 -78.75 161 C-77.89237432 163.6951468 -77.89237432 163.6951468 -75.625 164.5625 C-73.625 166.5625 -73.625 166.5625 -73.125 168.625 C-72.96 169.264375 -72.795 169.90375 -72.625 170.5625 C-71.965 170.8925 -71.305 171.2225 -70.625 171.5625 C-70.625 172.2225 -70.625 172.8825 -70.625 173.5625 C-69.965 173.5625 -69.305 173.5625 -68.625 173.5625 C-68.625 174.2225 -68.625 174.8825 -68.625 175.5625 C-67.985625 175.830625 -67.34625 176.09875 -66.6875 176.375 C-64.625 177.5625 -64.625 177.5625 -63.625 180.5625 C-62.29461551 180.9074145 -60.96042939 181.23766582 -59.625 181.5625 C-58.25481786 182.49823415 -56.88563741 183.43549581 -55.5234375 184.3828125 C-49.41551533 188.17827031 -42.60178193 190.88807234 -35.625 192.5625 C-34.54327515 192.82800659 -34.54327515 192.82800659 -33.43969727 193.09887695 C-29.77819002 193.70198236 -26.16475555 193.72494862 -22.46484375 193.73046875 C-21.67912491 193.73379715 -20.89340607 193.73712555 -20.08387756 193.74055481 C-18.42221661 193.74560576 -16.76054557 193.7479637 -15.09887695 193.74780273 C-12.59503734 193.74997181 -10.0916514 193.76809847 -7.58789062 193.78710938 C5.52689993 193.91232415 5.52689993 193.91232415 18.375 191.5625 C19.035 190.9025 19.695 190.2425 20.375 189.5625 C22.68411405 188.7151187 25.01974673 188.03828656 27.37890625 187.34375 C29.56227401 186.74621009 29.56227401 186.74621009 30.375 184.5625 C34.35886551 182.0958543 38.66540246 179.97805272 43.375 179.5625 C46.55815856 181.15407928 47.23142677 184.36722184 48.375 187.5625 C49.0625 190.5 49.0625 190.5 49.375 192.5625 C50.035 192.5625 50.695 192.5625 51.375 192.5625 C51.375 193.8825 51.375 195.2025 51.375 196.5625 C52.035 196.5625 52.695 196.5625 53.375 196.5625 C54.365 199.8625 55.355 203.1625 56.375 206.5625 C57.035 206.5625 57.695 206.5625 58.375 206.5625 C58.64054688 207.27277344 58.90609375 207.98304688 59.1796875 208.71484375 C59.70949219 210.09349609 59.70949219 210.09349609 60.25 211.5 C60.77207031 212.87478516 60.77207031 212.87478516 61.3046875 214.27734375 C62.1569086 216.71191056 62.1569086 216.71191056 64.375 217.5625 C64.375 219.8725 64.375 222.1825 64.375 224.5625 C62.725 224.8925 61.075 225.2225 59.375 225.5625 C59.375 226.2225 59.375 226.8825 59.375 227.5625 C54.15266868 231.33476749 48.36221456 234.2285011 42.375 236.5625 C40.87066406 237.16578125 40.87066406 237.16578125 39.3359375 237.78125 C30.6203491 241.22741369 22.75403148 243.615061 13.37890625 244.31640625 C11.37899207 244.35329325 11.37899207 244.35329325 10.375 245.5625 C2.84642104 246.68598481 -4.77988152 246.7226369 -12.375 246.6875 C-13.93456421 246.68351196 -13.93456421 246.68351196 -15.52563477 246.67944336 C-38.64963581 246.53786419 -38.64963581 246.53786419 -40.625 244.5625 C-42.54882578 244.24857914 -44.47375761 243.94028529 -46.40307617 243.66210938 C-55.68471544 242.3153359 -63.91282169 240.11060488 -72.625 236.5625 C-73.841875 236.088125 -75.05875 235.61375 -76.3125 235.125 C-81.20078393 232.81920569 -85.90809865 230.19816459 -90.625 227.5625 C-90.625 226.9025 -90.625 226.2425 -90.625 225.5625 C-91.5325 225.294375 -92.44 225.02625 -93.375 224.75 C-96.35491834 223.66118368 -98.31090359 222.69858899 -100.625 220.5625 C-100.625 219.9025 -100.625 219.2425 -100.625 218.5625 C-101.615 218.2325 -102.605 217.9025 -103.625 217.5625 C-103.625 216.9025 -103.625 216.2425 -103.625 215.5625 C-104.615 215.2325 -105.605 214.9025 -106.625 214.5625 C-109.3125 212.625 -109.3125 212.625 -111.625 210.5625 C-111.625 209.9025 -111.625 209.2425 -111.625 208.5625 C-112.285 208.5625 -112.945 208.5625 -113.625 208.5625 C-113.625 207.9025 -113.625 207.2425 -113.625 206.5625 C-114.615 206.2325 -115.605 205.9025 -116.625 205.5625 C-117.8125 203.5 -117.8125 203.5 -118.625 201.5625 C-119.285 201.5625 -119.945 201.5625 -120.625 201.5625 C-120.893125 200.964375 -121.16125 200.36625 -121.4375 199.75 C-122.62349039 197.56528087 -123.84556482 196.26779205 -125.625 194.5625 C-127.625 191.5625 -127.625 191.5625 -127.625 188.5625 C-128.285 188.5625 -128.945 188.5625 -129.625 188.5625 C-132.06545073 185.10519479 -133.40565514 181.59571763 -134.625 177.5625 C-135.285 177.5625 -135.945 177.5625 -136.625 177.5625 C-136.625 176.2425 -136.625 174.9225 -136.625 173.5625 C-137.285 173.5625 -137.945 173.5625 -138.625 173.5625 C-138.625 171.2525 -138.625 168.9425 -138.625 166.5625 C-139.285 166.5625 -139.945 166.5625 -140.625 166.5625 C-140.625 164.9125 -140.625 163.2625 -140.625 161.5625 C-141.285 161.5625 -141.945 161.5625 -142.625 161.5625 C-142.74617187 160.99402344 -142.86734375 160.42554688 -142.9921875 159.83984375 C-143.15976563 159.06769531 -143.32734375 158.29554688 -143.5 157.5 C-143.66242188 156.74589844 -143.82484375 155.99179687 -143.9921875 155.21484375 C-144.61375625 152.45529622 -144.61375625 152.45529622 -145.65014648 149.39599609 C-146.6730534 145.3735357 -146.89782311 141.68900304 -146.85546875 137.57421875 C-146.85501053 136.83097855 -146.85455231 136.08773834 -146.8540802 135.32197571 C-146.85107646 133.75800977 -146.84324696 132.19404633 -146.83081055 130.63012695 C-146.81263062 128.26697886 -146.81030084 125.90422622 -146.81054688 123.54101562 C-146.76278955 102.8380791 -146.76278955 102.8380791 -144.625 98.5625 C-144.35475292 96.26325503 -144.18002159 93.96448513 -144.00390625 91.65625 C-143.625 89.5625 -143.625 89.5625 -141.625 87.5625 C-141.22452556 85.23974823 -140.8852896 82.90510643 -140.625 80.5625 C-140.295 80.5625 -139.965 80.5625 -139.625 80.5625 C-139.4703125 78.9228125 -139.4703125 78.9228125 -139.3125 77.25 C-138.57152075 73.27565676 -138.26736548 73.15305439 -135.625 70.5625 C-134.4201851 68.30222655 -134.4201851 68.30222655 -133.4375 65.875 C-133.09332031 65.06675781 -132.74914062 64.25851562 -132.39453125 63.42578125 C-132.14058594 62.81089844 -131.88664062 62.19601562 -131.625 61.5625 C-130.965 61.5625 -130.305 61.5625 -129.625 61.5625 C-130.12 59.0875 -130.12 59.0875 -130.625 56.5625 C-129.965 56.8925 -129.305 57.2225 -128.625 57.5625 C-128.295 56.5725 -127.965 55.5825 -127.625 54.5625 C-126.965 54.5625 -126.305 54.5625 -125.625 54.5625 C-125.49931641 53.43521484 -125.49931641 53.43521484 -125.37109375 52.28515625 C-124.46652816 48.98420223 -123.35357714 48.07790099 -120.6875 46 C-117.62842158 43.61600925 -117.62842158 43.61600925 -115.55859375 40.41015625 C-114.625 38.5625 -114.625 38.5625 -111.625 37.5625 C-111.625 36.9025 -111.625 36.2425 -111.625 35.5625 C-110.965 35.5625 -110.305 35.5625 -109.625 35.5625 C-109.295 34.5725 -108.965 33.5825 -108.625 32.5625 C-106.97678756 31.53236723 -105.30996298 30.53135372 -103.625 29.5625 C-103.295 28.9025 -102.965 28.2425 -102.625 27.5625 C-100.97504099 26.53516703 -99.30554353 25.53899947 -97.625 24.5625 C-96.09674951 23.46862227 -94.57609545 22.36406772 -93.0625 21.25 C-84.27172055 15.05857436 -71.73909183 7.0528591 -60.625 7.5625 C-60.625 6.9025 -60.625 6.2425 -60.625 5.5625 C-51.09416098 2.51339858 -51.09416098 2.51339858 -46.5625 1.9375 C-43.74019239 1.88164978 -43.74019239 1.88164978 -42.625 0.5625 C-28.5782586 -1.22086372 -14.10562232 -0.77954896 0 0 Z " fill="#CCF301" transform="translate(156.625,198.4375)"/>
<path d="M0 0 C1 1 1 1 1.1875 4.3125 C1.01798052 7.64638318 0.75557129 9.25691987 -1 12 C-1.66 12 -2.32 12 -3 12 C-2.95875 12.86625 -2.9175 13.7325 -2.875 14.625 C-3.09568933 20.58361181 -5.63082782 25.59828743 -8 31 C-8.474375 32.19625 -8.94875 33.3925 -9.4375 34.625 C-10.96614562 37.92687455 -12.74241188 40.17801485 -15 43 C-15.67869169 44.64825125 -16.3561436 46.29709394 -17.015625 47.953125 C-19.09567105 52.27830011 -21.92786759 56.32084384 -25 60 C-25.66 60 -26.32 60 -27 60 C-27.185625 60.86625 -27.37125 61.7325 -27.5625 62.625 C-29.21584527 66.50676714 -30.92902369 67.83283631 -34.15625 70.37890625 C-36.06349892 72.05583062 -37.3238433 73.7188688 -38.75 75.8125 C-43.35755503 82.27552989 -49.90466729 87.50597007 -57 91 C-58.1446875 92.175625 -58.1446875 92.175625 -59.3125 93.375 C-62.41956611 96.40980876 -66.43724306 100 -71 100 C-71 100.66 -71 101.32 -71 102 C-72.43294498 102.84114171 -73.87154405 103.67265687 -75.3125 104.5 C-76.51326172 105.19609375 -76.51326172 105.19609375 -77.73828125 105.90625 C-80 107 -80 107 -83 107 C-83 107.66 -83 108.32 -83 109 C-83.6290625 109.24234375 -84.258125 109.4846875 -84.90625 109.734375 C-89.14023542 111.39226086 -93.27927137 113.08220092 -97.3125 115.1875 C-100.18735046 116.67449162 -102.75405054 117.59425632 -106 118 C-106 118.33 -106 118.66 -106 119 C-106.71027344 119.13277344 -107.42054688 119.26554687 -108.15234375 119.40234375 C-109.53099609 119.66724609 -109.53099609 119.66724609 -110.9375 119.9375 C-111.85402344 120.11152344 -112.77054687 120.28554688 -113.71484375 120.46484375 C-115.95289844 120.77714988 -115.95289844 120.77714988 -117 122 C-118.99958364 122.04080783 -121.00045254 122.04254356 -123 122 C-123 122.66 -123 123.32 -123 124 C-123.63808594 124.06058594 -124.27617187 124.12117188 -124.93359375 124.18359375 C-125.75988281 124.26738281 -126.58617187 124.35117187 -127.4375 124.4375 C-128.26121094 124.51871094 -129.08492188 124.59992188 -129.93359375 124.68359375 C-131.98662025 124.78930815 -131.98662025 124.78930815 -133 126 C-134.68608966 126.07205511 -136.37500659 126.08386068 -138.0625 126.0625 C-139.44115234 126.04896484 -139.44115234 126.04896484 -140.84765625 126.03515625 C-141.91306641 126.01775391 -141.91306641 126.01775391 -143 126 C-142.67 126.99 -142.34 127.98 -142 129 C-142.07006836 131.0847168 -142.07006836 131.0847168 -142.33984375 133.44921875 C-142.43330078 134.29677734 -142.52675781 135.14433594 -142.62304688 136.01757812 C-142.72681641 136.89865234 -142.83058594 137.77972656 -142.9375 138.6875 C-143.03740234 139.58017578 -143.13730469 140.47285156 -143.24023438 141.39257812 C-143.48765302 143.59578221 -143.74112279 145.79811781 -144 148 C-144.33 148 -144.66 148 -145 148 C-145.09087891 148.95712891 -145.09087891 148.95712891 -145.18359375 149.93359375 C-145.26738281 150.75988281 -145.35117187 151.58617187 -145.4375 152.4375 C-145.51871094 153.26121094 -145.59992188 154.08492187 -145.68359375 154.93359375 C-146 157 -146 157 -147 158 C-147.28549649 161.03623255 -147.44868814 164.07257785 -147.62109375 167.1171875 C-148 170 -148 170 -150 173 C-150.33 173 -150.66 173 -151 173 C-151.12060791 174.31605225 -151.12060791 174.31605225 -151.24365234 175.65869141 C-151.54738636 178.93563911 -151.85750587 182.21185504 -152.171875 185.48779297 C-152.30624801 186.90161664 -152.43812409 188.31568006 -152.56738281 189.72998047 C-152.7543868 191.77120097 -152.95056601 193.81137021 -153.1484375 195.8515625 C-153.26364746 197.07697754 -153.37885742 198.30239258 -153.49755859 199.56494141 C-153.98799162 202.91790188 -154.86956636 205.81526426 -156 209 C-156.26995323 210.95079406 -156.48128297 212.9108672 -156.625 214.875 C-156.69976562 215.84179688 -156.77453125 216.80859375 -156.8515625 217.8046875 C-156.90054688 218.52914062 -156.94953125 219.25359375 -157 220 C-157.66 220 -158.32 220 -159 220 C-158.96519531 220.68964844 -158.93039062 221.37929688 -158.89453125 222.08984375 C-158.7045418 228.68519186 -159.47101749 233.90334573 -162 240 C-164.31 240 -166.62 240 -169 240 C-169 239.34 -169 238.68 -169 238 C-169.66 238 -170.32 238 -171 238 C-171.06058594 237.14535156 -171.12117188 236.29070312 -171.18359375 235.41015625 C-171.26738281 234.30542969 -171.35117187 233.20070313 -171.4375 232.0625 C-171.55931641 230.40927734 -171.55931641 230.40927734 -171.68359375 228.72265625 C-171.70418084 226.08890097 -171.70418084 226.08890097 -173 225 C-173.21510988 223.38070061 -173.37083434 221.75340996 -173.5 220.125 C-173.5825 219.14015625 -173.665 218.1553125 -173.75 217.140625 C-173.91666667 215.046875 -174.08333333 212.953125 -174.25 210.859375 C-174.3325 209.87453125 -174.415 208.8896875 -174.5 207.875 C-174.5721875 206.96492187 -174.644375 206.05484375 -174.71875 205.1171875 C-174.77933347 203.01805518 -174.77933347 203.01805518 -176 202 C-176.07244053 199.98035801 -176.08377188 197.95832876 -176.0625 195.9375 C-176.05347656 194.83277344 -176.04445313 193.72804688 -176.03515625 192.58984375 C-176.02355469 191.73519531 -176.01195312 190.88054687 -176 190 C-176.66 190 -177.32 190 -178 190 C-178 188.68 -178 187.36 -178 186 C-178.66 185.67 -179.32 185.34 -180 185 C-179.98195313 183.99453125 -179.96390625 182.9890625 -179.9453125 181.953125 C-179.99812058 178.13585514 -180.34348454 174.52784832 -180.875 170.75 C-181.03742188 169.54859375 -181.19984375 168.3471875 -181.3671875 167.109375 C-181.82648747 163.85117805 -181.82648747 163.85117805 -184 161 C-184.39477539 158.74755859 -184.39477539 158.74755859 -184.59765625 156.1484375 C-184.67693359 155.21515625 -184.75621094 154.281875 -184.83789062 153.3203125 C-184.91201172 152.34835937 -184.98613281 151.37640625 -185.0625 150.375 C-185.2161384 148.44499696 -185.3734866 146.51528439 -185.53515625 144.5859375 C-185.600979 143.7304834 -185.66680176 142.8750293 -185.73461914 141.99365234 C-185.79407406 140.00338523 -185.79407406 140.00338523 -187 139 C-187.23427778 136.98405418 -187.41336124 134.961526 -187.5625 132.9375 C-187.64628906 131.83277344 -187.73007812 130.72804688 -187.81640625 129.58984375 C-187.90728516 128.30787109 -187.90728516 128.30787109 -188 127 C-188.33 127 -188.66 127 -189 127 C-189.04898437 126.20335937 -189.09796875 125.40671875 -189.1484375 124.5859375 C-189.54084805 119.02453286 -190.13409101 114.26844892 -192 109 C-193.67842148 101.29296261 -194.27902037 93.8745748 -194 86 C-191.04132082 86.14046255 -188.08317736 86.28712224 -185.125 86.4375 C-184.28324219 86.47681641 -183.44148438 86.51613281 -182.57421875 86.55664062 C-181.76855469 86.59853516 -180.96289062 86.64042969 -180.1328125 86.68359375 C-179.38918457 86.72025146 -178.64555664 86.75690918 -177.87939453 86.79467773 C-176 87 -176 87 -174 88 C-172.6601609 88.09464411 -171.31583232 88.13072149 -169.97265625 88.1328125 C-168.78446289 88.13474609 -168.78446289 88.13474609 -167.57226562 88.13671875 C-166.74404297 88.13285156 -165.91582031 88.12898438 -165.0625 88.125 C-163.8259668 88.13080078 -163.8259668 88.13080078 -162.56445312 88.13671875 C-161.37432617 88.13478516 -161.37432617 88.13478516 -160.16015625 88.1328125 C-159.43449463 88.13168457 -158.70883301 88.13055664 -157.96118164 88.12939453 C-155.78486136 88.06889014 -155.78486136 88.06889014 -153 87 C-150.93854893 86.931009 -148.87498599 86.91532273 -146.8125 86.9375 C-145.72582031 86.94652344 -144.63914062 86.95554687 -143.51953125 86.96484375 C-142.68808594 86.97644531 -141.85664063 86.98804688 -141 87 C-140.67 86.34 -140.34 85.68 -140 85 C-137.28553021 84.68758545 -134.66090639 84.48663408 -131.9375 84.375 C-131.17888672 84.33632813 -130.42027344 84.29765625 -129.63867188 84.2578125 C-127.75952805 84.16326438 -125.87979664 84.08053244 -124 84 C-123.505 82.02 -123.505 82.02 -123 80 C-121.86111328 79.83564453 -121.86111328 79.83564453 -120.69921875 79.66796875 C-119.70535156 79.50941406 -118.71148437 79.35085938 -117.6875 79.1875 C-116.70136719 79.03667969 -115.71523438 78.88585937 -114.69921875 78.73046875 C-111.7770097 77.93965386 -111.00685871 77.14177358 -109 75 C-106.98758803 74.35083485 -105.0158747 74.00288631 -102.9375 73.625 C-100.59881799 72.87058645 -99.70681799 71.73721932 -98 70 C-95.72423948 68.89660096 -93.41092746 67.98952806 -91.05859375 67.0625 C-88.68017676 66.04564689 -88.68017676 66.04564689 -87 63 C-85.34051852 61.98812105 -83.67419438 60.9873454 -82 60 C-81.505 59.01 -81.505 59.01 -81 58 C-79.66666667 57.33333333 -78.33333333 56.66666667 -77 56 C-76.46375 55.46375 -75.9275 54.9275 -75.375 54.375 C-74.92125 53.92125 -74.4675 53.4675 -74 53 C-73.34 53 -72.68 53 -72 53 C-71.773125 52.278125 -71.54625 51.55625 -71.3125 50.8125 C-69.73664872 47.43567583 -67.79123384 45.44232961 -65 43 C-64.34 43 -63.68 43 -63 43 C-62.62101562 42.18015625 -62.62101562 42.18015625 -62.234375 41.34375 C-60.77198955 38.56706877 -59.03855342 36.07884447 -57.25 33.5 C-52.41323263 26.30211486 -47.37349944 18.69882978 -46 10 C-45.34 10 -44.68 10 -44 10 C-43.855625 9.360625 -43.71125 8.72125 -43.5625 8.0625 C-43 6 -43 6 -42 5 C-28.50290184 1.56853437 -13.95296988 -0.51677666 0 0 Z " fill="#CCF301" transform="translate(568,352)"/>
<path d="M0 0 C3.625 -0.1875 3.625 -0.1875 7 0 C10.61601216 5.57468542 10.30720059 10.60567654 10 17 C10.66 17 11.32 17 12 17 C12 20.63 12 24.26 12 28 C12.66 28 13.32 28 14 28 C15.76830201 37.46687216 16.59457722 46.82852485 17.12304688 56.43554688 C17.19458984 57.49966797 17.26613281 58.56378906 17.33984375 59.66015625 C17.39519287 60.61543213 17.45054199 61.57070801 17.50756836 62.55493164 C18.07660216 65.38035233 18.93556716 66.09594458 21 68 C21.29296875 71.13671875 21.29296875 71.13671875 21.1875 74.6875 C21.14689453 76.45673828 21.14689453 76.45673828 21.10546875 78.26171875 C21.07066406 79.16535156 21.03585937 80.06898438 21 81 C21.66 81 22.32 81 23 81 C23.33 84.63 23.66 88.26 24 92 C24.33 92 24.66 92 25 92 C25.05534912 92.68626465 25.11069824 93.3725293 25.16772461 94.07958984 C25.42005303 97.17842435 25.67869649 100.27669984 25.9375 103.375 C26.02451172 104.45523438 26.11152344 105.53546875 26.20117188 106.6484375 C26.28818359 107.6796875 26.37519531 108.7109375 26.46484375 109.7734375 C26.543396 110.72653809 26.62194824 111.67963867 26.70288086 112.66162109 C26.87128174 115.01831795 26.87128174 115.01831795 28 117 C28.27511629 120.11361767 28.44668648 123.22687938 28.62109375 126.34765625 C28.74613281 127.22292969 28.87117187 128.09820312 29 129 C29.66 129.33 30.32 129.66 31 130 C31.29693918 131.94660131 31.58356787 133.89629767 31.78125 135.85546875 C32.06053305 138.59344008 32.52573465 141.28991229 33 144 C33.33 144 33.66 144 34 144 C34 146.97 34 149.94 34 153 C30 155 30 155 28 155 C28 154.34 28 153.68 28 153 C27.07960938 153.02320313 26.15921875 153.04640625 25.2109375 153.0703125 C16.24125397 153.19818986 7.86379666 152.52965366 -1 151 C-1.33 151.66 -1.66 152.32 -2 153 C-4.6297272 153.28822999 -7.17476975 153.46788325 -9.8125 153.5625 C-15.97227321 153.80114563 -15.97227321 153.80114563 -22 155 C-25.36307154 155.53144834 -28.73146056 156.01531118 -32.1015625 156.5 C-34.92879822 156.84412603 -34.92879822 156.84412603 -37 158 C-37 158.66 -37 159.32 -37 160 C-37.75925781 160.13277344 -38.51851563 160.26554688 -39.30078125 160.40234375 C-40.79158203 160.66724609 -40.79158203 160.66724609 -42.3125 160.9375 C-43.29863281 161.11152344 -44.28476562 161.28554687 -45.30078125 161.46484375 C-48.08189213 161.95746847 -48.08189213 161.95746847 -51 163 C-51 163.66 -51 164.32 -51 165 C-51.62648438 165.19335938 -52.25296875 165.38671875 -52.8984375 165.5859375 C-53.71570313 165.84632813 -54.53296875 166.10671875 -55.375 166.375 C-56.18710937 166.63023437 -56.99921875 166.88546875 -57.8359375 167.1484375 C-60.16459185 167.89854283 -60.16459185 167.89854283 -62 170 C-62.99 170 -63.98 170 -65 170 C-65 170.66 -65 171.32 -65 172 C-65.70125 172.2475 -66.4025 172.495 -67.125 172.75 C-70.15078961 173.96475048 -70.15078961 173.96475048 -73.1875 176.125 C-76 178 -76 178 -78 178 C-78 178.66 -78 179.32 -78 180 C-78.66 180 -79.32 180 -80 180 C-80 180.66 -80 181.32 -80 182 C-80.78375 182.2475 -81.5675 182.495 -82.375 182.75 C-85.49844383 184.2373542 -85.53724022 185.0094689 -87 188 C-88.65625 189.921875 -88.65625 189.921875 -90.5 191.75 C-91.1084375 192.36359375 -91.716875 192.9771875 -92.34375 193.609375 C-94 195 -94 195 -96 195 C-96.2475 195.721875 -96.495 196.44375 -96.75 197.1875 C-98.11953215 200.26894735 -99.85997022 202.4060245 -102 205 C-102.53625 205.928125 -103.0725 206.85625 -103.625 207.8125 C-104.07875 208.534375 -104.5325 209.25625 -105 210 C-105.66 210 -106.32 210 -107 210 C-107 211.32 -107 212.64 -107 214 C-107.66 214 -108.32 214 -109 214 C-109.103125 214.68835938 -109.20625 215.37671875 -109.3125 216.0859375 C-110.12572638 219.5329084 -111.47293079 222.43136967 -113 225.625 C-115.19613818 230.23354002 -115.19613818 230.23354002 -117 235 C-120.375 236.125 -120.375 236.125 -124 237 C-124.99 237.33 -125.98 237.66 -127 238 C-128.82277071 238.21589411 -130.65081648 238.38860972 -132.48046875 238.53515625 C-133.56263672 238.62216797 -134.64480469 238.70917969 -135.75976562 238.79882812 C-136.89091797 238.88583984 -138.02207031 238.97285156 -139.1875 239.0625 C-140.85522461 239.19881836 -140.85522461 239.19881836 -142.55664062 239.33789062 C-148.39128855 239.79733892 -154.14765488 240.10718581 -160 240 C-160.31103529 232.84618843 -159.64497064 225.30444922 -156 219 C-155.01 218.01 -155.01 218.01 -154 217 C-153.5563062 215.39587626 -153.11472356 213.79113979 -152.68359375 212.18359375 C-150.12877614 204.02277636 -145.89292311 196.93883051 -141 190 C-139.91139107 188.39940873 -138.8279702 186.7952755 -137.75 185.1875 C-137.03070313 184.12595703 -137.03070313 184.12595703 -136.296875 183.04296875 C-135.05063863 181.0797711 -133.99942574 179.09785121 -133 177 C-132.34 177.33 -131.68 177.66 -131 178 C-130.773125 177.0925 -130.54625 176.185 -130.3125 175.25 C-128.7772359 171.44839366 -127.28345294 170.36714049 -124 168 C-121.40153155 165.46649327 -118.88081373 162.87513819 -116.375 160.25 C-114 158 -114 158 -111 157 C-111 156.34 -111 155.68 -111 155 C-109.28667246 153.41466298 -107.50310953 151.90458785 -105.6875 150.4375 C-104.70136719 149.63183594 -103.71523438 148.82617188 -102.69921875 147.99609375 C-100 146 -100 146 -97 145 C-97 144.34 -97 143.68 -97 143 C-96.22914063 142.59007812 -95.45828125 142.18015625 -94.6640625 141.7578125 C-93.66117187 141.21898437 -92.65828125 140.68015625 -91.625 140.125 C-90.62726563 139.59132812 -89.62953125 139.05765625 -88.6015625 138.5078125 C-85.94651605 137.1179862 -85.94651605 137.1179862 -84 135 C-83.01 135 -82.02 135 -81 135 C-81 134.34 -81 133.68 -81 133 C-79.41800369 132.35089846 -77.83434276 131.70585306 -76.25 131.0625 C-75.36828125 130.70285156 -74.4865625 130.34320313 -73.578125 129.97265625 C-71.38813896 129.14643424 -69.28101729 128.50630057 -67 128 C-67 127.34 -67 126.68 -67 126 C-58.57142857 122.57142857 -58.57142857 122.57142857 -54 123 C-54 122.34 -54 121.68 -54 121 C-52.72125 120.87625 -51.4425 120.7525 -50.125 120.625 C-46.65209064 120.30957601 -46.65209064 120.30957601 -44 118 C-40.875 117.875 -40.875 117.875 -38 118 C-38 117.34 -38 116.68 -38 116 C-37.36191406 115.93941406 -36.72382813 115.87882812 -36.06640625 115.81640625 C-35.24011719 115.73261719 -34.41382813 115.64882812 -33.5625 115.5625 C-32.73878906 115.48128906 -31.91507813 115.40007812 -31.06640625 115.31640625 C-29.01337975 115.21069185 -29.01337975 115.21069185 -28 114 C-26.31816052 113.76712992 -24.6287584 113.58735834 -22.9375 113.4375 C-22.01839844 113.35371094 -21.09929687 113.26992187 -20.15234375 113.18359375 C-19.44207031 113.12300781 -18.73179687 113.06242187 -18 113 C-18.01160156 112.07316406 -18.02320313 111.14632812 -18.03515625 110.19140625 C-18.04417969 108.99386719 -18.05320312 107.79632813 -18.0625 106.5625 C-18.07410156 105.36753906 -18.08570313 104.17257813 -18.09765625 102.94140625 C-18 100 -18 100 -17 99 C-16.79697766 97.3803038 -16.65291229 95.75311774 -16.53515625 94.125 C-16.45716797 93.14015625 -16.37917969 92.1553125 -16.29882812 91.140625 C-16.14129776 89.04716368 -15.98765034 86.95340655 -15.83789062 84.859375 C-15.71897461 83.38210937 -15.71897461 83.38210937 -15.59765625 81.875 C-15.53070557 80.96492188 -15.46375488 80.05484375 -15.39477539 79.1171875 C-15.26449951 78.41851562 -15.13422363 77.71984375 -15 77 C-14.34 76.67 -13.68 76.34 -13 76 C-11.2536818 68.75601341 -10.74835319 61.423581 -11 54 C-10.34 54 -9.68 54 -9 54 C-9 53.01 -9 52.02 -9 51 C-8.34 51 -7.68 51 -7 51 C-7.01160156 50.14535156 -7.02320313 49.29070312 -7.03515625 48.41015625 C-7.04417969 47.30542969 -7.05320312 46.20070312 -7.0625 45.0625 C-7.07410156 43.96035156 -7.08570313 42.85820313 -7.09765625 41.72265625 C-7 39 -7 39 -6 38 C-5.7971673 36.50049346 -5.65298608 34.9929429 -5.53515625 33.484375 C-5.45716797 32.56269531 -5.37917969 31.64101562 -5.29882812 30.69140625 C-5.1425483 28.74630358 -4.98885894 26.80099087 -4.83789062 24.85546875 C-4.75861328 23.92863281 -4.67933594 23.00179687 -4.59765625 22.046875 C-4.53070557 21.19963867 -4.46375488 20.35240234 -4.39477539 19.47949219 C-3.9626671 16.76552076 -3.05285565 14.52950226 -2 12 C-1.83330969 9.66138242 -1.83330969 9.66138242 -2 7.375 C-2.19694142 3.76851026 -2.13134401 3.19701602 0 0 Z " fill="#CCF301" transform="translate(399,56)"/>
<path d="M0 0 C5.28 0 10.56 0 16 0 C15.97905273 1.21880859 15.95810547 2.43761719 15.93652344 3.69335938 C15.86314062 8.29300801 15.81784956 12.89260704 15.78027344 17.49267578 C15.76037861 19.46900179 15.73325277 21.4452707 15.69824219 23.42138672 C15.38473049 41.59584403 17.85019541 57.08154248 26.25 73.4375 C28 77 28 77 28 80 C28.66 80 29.32 80 30 80 C31.78305524 82.63892176 32.99059621 84.97178863 34 88 C34.66 88 35.32 88 36 88 C36.515625 88.99 37.03125 89.98 37.5625 91 C41.76407241 98.32316317 48.76569183 107.25523061 57 110 C58 111.33333333 59 112.66666667 60 114 C60.99 114.33 61.98 114.66 63 115 C63.99 116.485 63.99 116.485 65 118 C67.44381502 119.16081213 69.28294264 120 72 120 C72 120.66 72 121.32 72 122 C74.85410334 123.50560497 77.68124642 124.63216796 80.75 125.625 C81.94882812 126.01558594 81.94882812 126.01558594 83.171875 126.4140625 C83.77515625 126.60742188 84.3784375 126.80078125 85 127 C85 127.66 85 128.32 85 129 C90.02649303 130.57077907 94.76119922 131.44854729 100 132 C100 132.66 100 133.32 100 134 C100.99 134.33 101.98 134.66 103 135 C104.96033128 138.70062537 105.35203952 142.17259934 105.625 146.3125 C105.73714844 147.91544922 105.73714844 147.91544922 105.8515625 149.55078125 C105.92503906 150.76314453 105.92503906 150.76314453 106 152 C106.33 152 106.66 152 107 152 C107.04898438 152.89203125 107.09796875 153.7840625 107.1484375 154.703125 C107.26058594 156.45882812 107.26058594 156.45882812 107.375 158.25 C107.47941406 159.99023438 107.47941406 159.99023438 107.5859375 161.765625 C107.96839381 164.7531139 108.5856583 166.41476886 110 169 C109.875 171.625 109.875 171.625 109 174 C106.9375 175.3125 106.9375 175.3125 105 176 C105 175.34 105 174.68 105 174 C103.906875 174.04125 102.81375 174.0825 101.6875 174.125 C98 174 98 174 95 172 C92.49103314 171.54398739 92.49103314 171.54398739 89.8125 171.375 C88.91144531 171.30023438 88.01039063 171.22546875 87.08203125 171.1484375 C86.05142578 171.07496094 86.05142578 171.07496094 85 171 C85 170.67 85 170.34 85 170 C78.565 168.02 78.565 168.02 72 166 C72 165.34 72 164.68 72 164 C70.68 164 69.36 164 68 164 C68 163.34 68 162.68 68 162 C67.15179688 161.90847656 66.30359375 161.81695312 65.4296875 161.72265625 C61.49362887 160.89330449 58.6266737 159.40272503 55.125 157.4375 C53.97257813 156.79683594 52.82015625 156.15617188 51.6328125 155.49609375 C50.32957031 154.75552734 50.32957031 154.75552734 49 154 C49 153.34 49 152.68 49 152 C48.2575 151.87625 47.515 151.7525 46.75 151.625 C44.19858515 151.04513299 42.2732427 150.26291261 40 149 C40 148.34 40 147.68 40 147 C39.2265625 146.6596875 39.2265625 146.6596875 38.4375 146.3125 C35.10452995 144.51782382 31.85296329 142.50034985 29 140 C29 139.34 29 138.68 29 138 C28.443125 137.7525 27.88625 137.505 27.3125 137.25 C24.57589087 135.77075182 22.32349131 134.06532561 20 132 C20 131.34 20 130.68 20 130 C19.01 129.67 18.02 129.34 17 129 C15.37995767 127.27870503 13.96124214 125.45074522 12.5 123.59375 C10.98483163 121.73155509 10.98483163 121.73155509 8 121 C6.35179805 118.39757586 6 117.13751221 6 114 C5.34 114 4.68 114 4 114 C4 113.34 4 112.68 4 112 C3.40316406 111.75894531 2.80632812 111.51789063 2.19140625 111.26953125 C-0.43857183 109.74592541 -1.4495502 108.24671368 -3.0625 105.6875 C-3.57425781 104.88570313 -4.08601563 104.08390625 -4.61328125 103.2578125 C-5.67199663 101.53404492 -6.71465305 99.80040381 -7.75 98.0625 C-8.96010553 95.88108012 -8.96010553 95.88108012 -11 94 C-11.6328125 91.8359375 -11.6328125 91.8359375 -12.125 89.375 C-12.29257813 88.55773437 -12.46015625 87.74046875 -12.6328125 86.8984375 C-12.81457031 85.95871094 -12.81457031 85.95871094 -13 85 C-13.66 85 -14.32 85 -15 85 C-15.67408308 83.73308493 -16.33900497 82.46129251 -17 81.1875 C-17.37125 80.47980469 -17.7425 79.77210938 -18.125 79.04296875 C-19 77 -19 77 -19 74 C-19.66 74 -20.32 74 -21 74 C-21.67258667 71.66836622 -22.33847444 69.3347961 -23 67 C-23.185625 66.360625 -23.37125 65.72125 -23.5625 65.0625 C-24.05587864 62.73657213 -24.09743031 60.62526097 -24.0625 58.25 C-24.05347656 57.45078125 -24.04445313 56.6515625 -24.03515625 55.828125 C-24.02355469 55.22484375 -24.01195312 54.6215625 -24 54 C-24.66 54 -25.32 54 -26 54 C-26 50.7 -26 47.4 -26 44 C-28.97 43.67 -31.94 43.34 -35 43 C-35 42.34 -35 41.68 -35 41 C-36.19238281 40.86722656 -37.38476562 40.73445313 -38.61328125 40.59765625 C-40.17970678 40.41944017 -41.74611198 40.24104544 -43.3125 40.0625 C-44.09818359 39.97548828 -44.88386719 39.88847656 -45.69335938 39.79882812 C-46.45068359 39.71181641 -47.20800781 39.62480469 -47.98828125 39.53515625 C-48.68477783 39.456604 -49.38127441 39.37805176 -50.09887695 39.29711914 C-52 39 -52 39 -55 38 C-55.33 37.34 -55.66 36.68 -56 36 C-58.35620276 35.4681802 -58.35620276 35.4681802 -61.20703125 35.21875 C-62.26857422 35.09886719 -63.33011719 34.97898437 -64.42382812 34.85546875 C-65.54208984 34.73816406 -66.66035156 34.62085938 -67.8125 34.5 C-70.00725732 34.26735828 -72.20131933 34.0280361 -74.39453125 33.78125 C-75.37268799 33.67876953 -76.35084473 33.57628906 -77.35864258 33.47070312 C-79.959222 33.00726684 -81.68579391 32.22103799 -84 31 C-87.50625473 30.32285677 -91.00603949 29.75634708 -94.53710938 29.23242188 C-99.44558371 28.44410435 -103.50336544 27.13248587 -108 25 C-108 23.35 -108 21.7 -108 20 C-103.27543771 18.56208974 -98.57700152 17.47015721 -93.72265625 16.5625 C-91.6276598 16.12967433 -89.55440407 15.59065623 -87.49609375 15.0078125 C-81.75524741 13.55251977 -75.88974185 13.28653981 -70 12.875 C-68.84371094 12.78863281 -67.68742187 12.70226562 -66.49609375 12.61328125 C-63.66445695 12.40266364 -60.83251434 12.19840359 -58 12 C-58 11.34 -58 10.68 -58 10 C-54.20729835 8.10364918 -49.4985612 8.24325465 -45.296875 7.83789062 C-44.55179688 7.75861328 -43.80671875 7.67933594 -43.0390625 7.59765625 C-42.02126709 7.49723022 -42.02126709 7.49723022 -40.98291016 7.39477539 C-38.94216049 7.08287804 -38.94216049 7.08287804 -37.0546875 6 C-34.65031771 4.82981242 -32.74592082 4.61282234 -30.0859375 4.40234375 C-29.16039062 4.32306641 -28.23484375 4.24378906 -27.28125 4.16210938 C-25.84265625 4.05092773 -25.84265625 4.05092773 -24.375 3.9375 C-22.46585632 3.78349574 -20.55698144 3.62611038 -18.6484375 3.46484375 C-17.80458496 3.399021 -16.96073242 3.33319824 -16.09130859 3.26538086 C-13.94454075 3.11021145 -13.94454075 3.11021145 -12 2 C-9.95944995 1.92934383 -7.91665743 1.91578024 -5.875 1.9375 C-4.77929688 1.94652344 -3.68359375 1.95554687 -2.5546875 1.96484375 C-1.29011719 1.98224609 -1.29011719 1.98224609 0 2 C0 1.34 0 0.68 0 0 Z " fill="#CCF301" transform="translate(262,300)"/>
<path d="M0 0 C6.27 0 12.54 0 19 0 C23.5 6.75 23.5 6.75 24 10 C24.66 10 25.32 10 26 10 C28.62788203 12.30935087 29.87994369 13.63983107 31 17 C31.66 17.33 32.32 17.66 33 18 C33.73075648 20.3140622 34.40138258 22.64828869 35 25 C35.66 25 36.32 25 37 25 C37.495 26.98 37.495 26.98 38 29 C38.66 29 39.32 29 40 29 C40 28.01 40 27.02 40 26 C40.66 26 41.32 26 42 26 C42 25.01 42 24.02 42 23 C42.66 22.67 43.32 22.34 44 22 C45.13350534 19.98330173 45.13350534 19.98330173 46 18 C46.66 18 47.32 18 48 18 C48.33 16.35 48.66 14.7 49 13 C49.66 13 50.32 13 51 13 C51 12.34 51 11.68 51 11 C51.66 11 52.32 11 53 11 C53 10.01 53 9.02 53 8 C53.66 8 54.32 8 55 8 C55.33 6.35 55.66 4.7 56 3 C56.99 3 57.98 3 59 3 C59.33 2.01 59.66 1.02 60 0 C65.61 0 71.22 0 77 0 C78.02083425 7.57211664 78.14536093 15.00999865 78.1328125 22.64453125 C78.13376923 23.93187668 78.13472595 25.21922211 78.13571167 26.545578 C78.13717616 29.25264707 78.13507282 31.95968288 78.13037109 34.66674805 C78.12464584 38.13114187 78.12797828 41.59545867 78.13394356 45.05984974 C78.13842611 48.37974976 78.13528898 51.69962905 78.1328125 55.01953125 C78.13483673 56.2612056 78.13686096 57.50287994 78.13894653 58.78218079 C78.13421829 60.50999031 78.13421829 60.50999031 78.12939453 62.27270508 C78.12859894 63.28480545 78.12780334 64.29690582 78.12698364 65.3396759 C78.01333704 67.72058725 77.68146132 69.72522807 77 72 C74.02077407 72.02683987 71.04178705 72.04676037 68.0625 72.0625 C67.21236328 72.07087891 66.36222656 72.07925781 65.48632812 72.08789062 C64.67744141 72.09111328 63.86855469 72.09433594 63.03515625 72.09765625 C62.2862915 72.10289307 61.53742676 72.10812988 60.76586914 72.11352539 C59 72 59 72 58 71 C57.92448566 69.09382935 57.91691333 67.18489851 57.9375 65.27734375 C57.94523438 64.09849609 57.95296875 62.91964844 57.9609375 61.70507812 C57.9866957 59.22070017 58.01273105 56.73632507 58.0390625 54.25195312 C58.07937235 48.0610327 57.97762364 42.11778544 57 36 C56.67 37.32 56.34 38.64 56 40 C55.34 40 54.68 40 54 40 C54 40.66 54 41.32 54 42 C53.34 42 52.68 42 52 42 C51.9175 42.5775 51.835 43.155 51.75 43.75 C50.79421474 46.61735579 49.14915257 47.91800845 47 50 C46.67 50.99 46.34 51.98 46 53 C44.375 55.1875 44.375 55.1875 42 57 C37.97940837 57.57437023 35.93631674 57.6899176 32.625 55.25 C31 53 31 53 30.578125 51.078125 C29.88792491 48.5971355 28.8533449 47.39172079 27.125 45.5 C24.9395347 43.08390771 22.94188636 40.616237 21 38 C21.00785522 39.3317627 21.00785522 39.3317627 21.01586914 40.69042969 C21.03293868 43.99284518 21.04546363 47.29521359 21.05493164 50.59765625 C21.05995206 52.02539816 21.06676972 53.45313496 21.07543945 54.88085938 C21.08760553 56.93621079 21.09325128 58.99149407 21.09765625 61.046875 C21.10551147 62.90070801 21.10551147 62.90070801 21.11352539 64.79199219 C21 68 21 68 20 72 C13.4 72 6.8 72 0 72 C0 48.24 0 24.48 0 0 Z M58 33 C59 35 59 35 59 35 Z " fill="#CCF301" transform="translate(662,492)"/>
<path d="M0 0 C1.4540625 0.0309375 1.4540625 0.0309375 2.9375 0.0625 C2.9375 0.7225 2.9375 1.3825 2.9375 2.0625 C3.494375 2.02769531 4.05125 1.99289062 4.625 1.95703125 C10.48451038 1.749177 14.5675336 2.71924193 19.9375 5.0625 C19.9375 5.7225 19.9375 6.3825 19.9375 7.0625 C20.47375 7.165625 21.01 7.26875 21.5625 7.375 C25.90258908 8.63134158 29.13021115 9.85156672 31.6875 13.6875 C32.1 14.47125 32.5125 15.255 32.9375 16.0625 C33.5975 16.3925 34.2575 16.7225 34.9375 17.0625 C36.89215884 21.04699687 37.9375 23.58524716 37.9375 28.0625 C38.5975 28.0625 39.2575 28.0625 39.9375 28.0625 C40.04640711 31.06349588 40.12523555 34.06046378 40.1875 37.0625 C40.22101563 37.90167969 40.25453125 38.74085938 40.2890625 39.60546875 C40.38496527 45.79119755 39.06880903 49.78507761 35.9375 55.0625 C35.43331543 56.08537109 35.43331543 56.08537109 34.91894531 57.12890625 C32.5669829 61.76262325 29.57042224 64.74603888 24.9375 67.0625 C24.2775 67.0625 23.6175 67.0625 22.9375 67.0625 C22.9375 67.7225 22.9375 68.3825 22.9375 69.0625 C15.4753822 74.32987727 8.37193515 74.32239123 -0.4375 74.1875 C-1.55511719 74.17847656 -2.67273438 74.16945313 -3.82421875 74.16015625 C-6.57053462 74.13668346 -9.31640472 74.10384728 -12.0625 74.0625 C-12.0625 73.4025 -12.0625 72.7425 -12.0625 72.0625 C-15.5275 71.5675 -15.5275 71.5675 -19.0625 71.0625 C-19.0625 70.4025 -19.0625 69.7425 -19.0625 69.0625 C-20.3825 69.0625 -21.7025 69.0625 -23.0625 69.0625 C-23.0625 68.4025 -23.0625 67.7425 -23.0625 67.0625 C-23.68125 66.753125 -24.3 66.44375 -24.9375 66.125 C-26.3125 65.4375 -27.6875 64.75 -29.0625 64.0625 C-29.0625 63.4025 -29.0625 62.7425 -29.0625 62.0625 C-30.0525 61.7325 -31.0425 61.4025 -32.0625 61.0625 C-32.0625 60.4025 -32.0625 59.7425 -32.0625 59.0625 C-33.0525 59.0625 -34.0425 59.0625 -35.0625 59.0625 C-35.3925 57.0825 -35.7225 55.1025 -36.0625 53.0625 C-36.7225 53.0625 -37.3825 53.0625 -38.0625 53.0625 C-40.95744649 48.13554455 -40.39215354 43.12710707 -40.375 37.5625 C-40.39111328 36.51707031 -40.40722656 35.47164062 -40.42382812 34.39453125 C-40.42447266 33.38777344 -40.42511719 32.38101563 -40.42578125 31.34375 C-40.42876221 30.42658203 -40.43174316 29.50941406 -40.43481445 28.56445312 C-39.99338936 25.59807651 -38.97317251 24.32797332 -37.0625 22.0625 C-36.60875 21.093125 -36.155 20.12375 -35.6875 19.125 C-32.94006804 13.94714745 -29.67870616 10.82759336 -24.0625 9.0625 C-24.0625 8.4025 -24.0625 7.7425 -24.0625 7.0625 C-22.7425 7.0625 -21.4225 7.0625 -20.0625 7.0625 C-20.0625 6.4025 -20.0625 5.7425 -20.0625 5.0625 C-15.24161764 2.7033448 -11.23851289 1.65469075 -5.8828125 1.2734375 C-3.04217847 0.94426532 -3.33945044 0.06815205 0 0 Z M-10.0625 20.0625 C-10.3925 21.0525 -10.7225 22.0425 -11.0625 23.0625 C-11.68769531 23.19140625 -12.31289063 23.3203125 -12.95703125 23.453125 C-15.26535823 23.87998581 -15.26535823 23.87998581 -16.51171875 26.171875 C-16.92035156 27.04328125 -17.32898438 27.9146875 -17.75 28.8125 C-18.16636719 29.67359375 -18.58273437 30.5346875 -19.01171875 31.421875 C-20.04077253 34.00789864 -20.73229487 36.29993881 -21.0625 39.0625 C-19.81572937 41.53061352 -19.81572937 41.53061352 -18.0625 44.0625 C-16.9884795 46.36947678 -16.03180837 48.70846538 -15.0625 51.0625 C-14.4025 51.0625 -13.7425 51.0625 -13.0625 51.0625 C-13.0625 51.7225 -13.0625 52.3825 -13.0625 53.0625 C-8.74781175 55.18613562 -4.78003113 55.36472359 -0.0625 55.3125 C0.63617187 55.32023438 1.33484375 55.32796875 2.0546875 55.3359375 C6.11763638 55.32060562 9.33818983 54.99162667 12.9375 53.0625 C18.51328586 47.23326933 19.17032313 43.30901355 19.1015625 35.5390625 C18.84550744 31.67385046 17.65273602 28.49297205 15.9375 25.0625 C14.28217377 24.04383771 12.61489862 23.04439187 10.9375 22.0625 C10.2775 21.4025 9.6175 20.7425 8.9375 20.0625 C6.90282566 19.78563935 6.90282566 19.78563935 4.5859375 19.8671875 C3.73515625 19.87363281 2.884375 19.88007813 2.0078125 19.88671875 C1.11835937 19.90347656 0.22890625 19.92023438 -0.6875 19.9375 C-1.5846875 19.94652344 -2.481875 19.95554687 -3.40625 19.96484375 C-5.62526586 19.9884503 -7.84375077 20.0213769 -10.0625 20.0625 Z " fill="#CCF301" transform="translate(604.0625,489.9375)"/>
<path d="M0 0 C1.38638672 -0.0309375 1.38638672 -0.0309375 2.80078125 -0.0625 C3.68894531 -0.06765625 4.57710937 -0.0728125 5.4921875 -0.078125 C6.30800293 -0.0874707 7.12381836 -0.09681641 7.96435547 -0.10644531 C10.64748622 0.33619547 11.53985807 1.06699292 13.125 3.25 C13.125 4.24 13.125 5.23 13.125 6.25 C13.785 6.25 14.445 6.25 15.125 6.25 C15.125 8.56 15.125 10.87 15.125 13.25 C15.785 13.25 16.445 13.25 17.125 13.25 C17.125 14.9 17.125 16.55 17.125 18.25 C17.785 18.25 18.445 18.25 19.125 18.25 C19.3725 18.91 19.62 19.57 19.875 20.25 C21.1121269 23.34742382 21.1121269 23.34742382 22.875 26.5625 C25.35136901 31.41283179 27.16104427 36.50398807 29.01855469 41.61450195 C30.46377383 45.57614319 30.46377383 45.57614319 32.2109375 49.41015625 C33.73753255 52.48291808 34.45406422 55.80299381 35.34375 59.10546875 C35.91232432 61.43004547 35.91232432 61.43004547 38.125 62.25 C38.57421875 64.28125 38.57421875 64.28125 38.8125 66.75 C38.94205078 67.97203125 38.94205078 67.97203125 39.07421875 69.21875 C39.09097656 69.8890625 39.10773438 70.559375 39.125 71.25 C36.97322304 73.40177696 32.2861484 72.48157305 29.3125 72.5 C28.49201172 72.520625 27.67152344 72.54125 26.82617188 72.5625 C23.34338114 72.58509718 20.80152386 72.57291045 17.62890625 71.05859375 C15.71428459 68.75607471 15.33402529 67.00791227 14.875 64.0625 C14.72546875 63.16144531 14.5759375 62.26039063 14.421875 61.33203125 C14.32390625 60.64496094 14.2259375 59.95789063 14.125 59.25 C11.07185432 58.35527949 8.38679952 58.14395362 5.2109375 58.1875 C3.82261719 58.19910156 3.82261719 58.19910156 2.40625 58.2109375 C1.4471875 58.22382812 0.488125 58.23671875 -0.5 58.25 C-2.40879819 58.27545064 -4.31766167 58.29650362 -6.2265625 58.3125 C-7.49234131 58.32990234 -7.49234131 58.32990234 -8.78369141 58.34765625 C-10.875 58.25 -10.875 58.25 -12.875 57.25 C-12.90078125 57.83007812 -12.9265625 58.41015625 -12.953125 59.0078125 C-13.00984375 59.78898438 -13.0665625 60.57015625 -13.125 61.375 C-13.19460938 62.52355469 -13.19460938 62.52355469 -13.265625 63.6953125 C-14.15523627 67.42483667 -15.22642374 69.43992519 -17.875 72.25 C-21.1517885 72.9898955 -24.28722255 72.81727965 -27.625 72.625 C-28.51316406 72.59792969 -29.40132812 72.57085938 -30.31640625 72.54296875 C-32.50508395 72.47236624 -34.68879568 72.37385527 -36.875 72.25 C-37.15003598 63.68839603 -37.15003598 63.68839603 -34.9375 60.5625 C-33.07274756 57.56759457 -32.29176233 55.68828923 -31.875 52.25 C-30.885 52.25 -29.895 52.25 -28.875 52.25 C-29.205 50.27 -29.535 48.29 -29.875 46.25 C-29.215 46.25 -28.555 46.25 -27.875 46.25 C-27.7925 45.425 -27.71 44.6 -27.625 43.75 C-26.84870596 40.12729447 -25.5796126 37.52434159 -23.86328125 34.28515625 C-22.43784686 31.34977555 -21.66512391 28.41049564 -20.875 25.25 C-20.215 25.25 -19.555 25.25 -18.875 25.25 C-18.95041016 24.16912109 -18.95041016 24.16912109 -19.02734375 23.06640625 C-18.85194943 19.82386003 -17.98438916 18.0227331 -16.4375 15.1875 C-14.82543724 12.20679136 -13.54445206 9.58187061 -12.875 6.25 C-12.215 6.25 -11.555 6.25 -10.875 6.25 C-10.895625 5.445625 -10.91625 4.64125 -10.9375 3.8125 C-10.79859987 -1.88240532 -4.45053778 0.02462262 0 0 Z M0.125 25.25 C-0.06835938 25.88808594 -0.26171875 26.52617188 -0.4609375 27.18359375 C-0.72132813 28.00988281 -0.98171875 28.83617187 -1.25 29.6875 C-1.50523437 30.51121094 -1.76046875 31.33492187 -2.0234375 32.18359375 C-2.875 34.25 -2.875 34.25 -4.875 35.25 C-5.60575648 37.5640622 -6.27638258 39.89828869 -6.875 42.25 C-0.44 41.755 -0.44 41.755 6.125 41.25 C5.41540429 38.41161714 4.67719491 35.94361897 3.625 33.25 C2.5922235 30.60609215 1.76712925 28.01609524 1.125 25.25 C0.795 25.25 0.465 25.25 0.125 25.25 Z " fill="#CCF301" transform="translate(857.875,491.75)"/>
<path d="M0 0 C0.79849365 -0.00570007 1.5969873 -0.01140015 2.41967773 -0.01727295 C4.117825 -0.02674386 5.81599083 -0.03326519 7.51416016 -0.03710938 C10.0866025 -0.04673138 12.65821704 -0.07769824 15.23046875 -0.109375 C16.88280777 -0.11591344 18.5351525 -0.1211606 20.1875 -0.125 C20.94724121 -0.1373468 21.70698242 -0.1496936 22.48974609 -0.16241455 C28.1552849 -0.13933984 32.85971147 1.15143388 38.125 3.203125 C38.125 3.863125 38.125 4.523125 38.125 5.203125 C39.053125 5.6671875 39.053125 5.6671875 40 6.140625 C41.375 6.828125 42.75 7.515625 44.125 8.203125 C44.125 8.863125 44.125 9.523125 44.125 10.203125 C44.785 10.203125 45.445 10.203125 46.125 10.203125 C46.41375 11.0075 46.7025 11.811875 47 12.640625 C47.85762568 15.3357718 47.85762568 15.3357718 50.125 16.203125 C50.20639142 18.59965028 50.26567009 20.99337936 50.3125 23.390625 C50.33763672 24.06416016 50.36277344 24.73769531 50.38867188 25.43164062 C50.45467097 29.941579 49.766351 32.56378243 47.125 36.203125 C46.63 37.193125 46.63 37.193125 46.125 38.203125 C45.465 38.203125 44.805 38.203125 44.125 38.203125 C44.125 38.863125 44.125 39.523125 44.125 40.203125 C41.36534852 43.6317829 39.88441323 45.05909835 35.5 45.890625 C33.829375 46.0453125 33.829375 46.0453125 32.125 46.203125 C31.135 46.863125 30.145 47.523125 29.125 48.203125 C26.37082682 48.50378654 23.69854853 48.71237799 20.9375 48.828125 C19.81311523 48.88613281 19.81311523 48.88613281 18.66601562 48.9453125 C16.81940801 49.03940716 14.9722381 49.12234819 13.125 49.203125 C13.310625 50.42 13.49625 51.636875 13.6875 52.890625 C14.36688569 58.97597964 14.15811099 65.16616341 13.125 71.203125 C10.77647472 72.37738764 9.38725935 72.31820673 6.7734375 72.30078125 C5.92265625 72.29755859 5.071875 72.29433594 4.1953125 72.29101562 C3.30585937 72.28263672 2.41640625 72.27425781 1.5 72.265625 C0.6028125 72.26111328 -0.294375 72.25660156 -1.21875 72.25195312 C-3.43756648 72.24015091 -5.65625018 72.22368655 -7.875 72.203125 C-9.31096747 69.33119007 -9.00229859 66.86754838 -9.00439453 63.65795898 C-9.00614685 62.98627686 -9.00789917 62.31459473 -9.00970459 61.62255859 C-9.01411291 59.39808585 -9.01118904 57.17369233 -9.0078125 54.94921875 C-9.00848575 53.40747563 -9.00945596 51.86573262 -9.01071167 50.32398987 C-9.01218719 47.09171539 -9.01003845 43.85946853 -9.00537109 40.62719727 C-8.99966911 36.47513606 -9.00295669 32.32313943 -9.00894356 28.17108059 C-9.01254902 24.98760996 -9.01141074 21.80415475 -9.00881577 18.62068367 C-9.0081467 17.08920344 -9.00897421 15.55772183 -9.01129532 14.02624321 C-9.01382212 11.89042294 -9.00998112 9.7547088 -9.00439453 7.61889648 C-9.00359894 6.40137192 -9.00280334 5.18384735 -9.00198364 3.9294281 C-8.74655784 -1.55449201 -4.42981036 0.02426254 0 0 Z M12.125 18.203125 C12.785 21.833125 13.445 25.463125 14.125 29.203125 C13.135 29.698125 13.135 29.698125 12.125 30.203125 C14.22909639 30.23013908 16.33329178 30.24952723 18.4375 30.265625 C19.60925781 30.27722656 20.78101563 30.28882813 21.98828125 30.30078125 C25.15559195 30.35212398 25.15559195 30.35212398 28.125 29.203125 C29.06286082 24.15302905 29.06286082 24.15302905 28.125 19.203125 C25.12186252 17.70155626 22.33432478 18.11031296 19 18.140625 C17.71867188 18.14964844 16.43734375 18.15867187 15.1171875 18.16796875 C14.12976563 18.17957031 13.14234375 18.19117188 12.125 18.203125 Z " fill="#CCF301" transform="translate(768.875,491.796875)"/>
<path d="M0 0 C1.21236328 0.02707031 1.21236328 0.02707031 2.44921875 0.0546875 C3.37154297 0.08949219 3.37154297 0.08949219 4.3125 0.125 C4.3125 0.785 4.3125 1.445 4.3125 2.125 C6.6225 2.455 8.9325 2.785 11.3125 3.125 C11.3125 3.785 11.3125 4.445 11.3125 5.125 C12.3025 5.455 13.2925 5.785 14.3125 6.125 C14.39409574 10.28638263 14.29498524 14.0722484 13.3125 18.125 C12.6525 18.125 11.9925 18.125 11.3125 18.125 C11.3125 20.105 11.3125 22.085 11.3125 24.125 C10.6525 24.125 9.9925 24.125 9.3125 24.125 C9.4053125 25.73375 9.4053125 25.73375 9.5 27.375 C9.3125 31.125 9.3125 31.125 7.86328125 32.8984375 C5.69293507 36.01455166 5.67220032 38.74562789 5.3125 42.5 C4.80122203 47.81516061 3.79037142 51.42145781 1.3125 56.125 C0.73376921 58.19299802 0.21110352 60.27763769 -0.25 62.375 C-1.46740431 67.90490431 -1.46740431 67.90490431 -3.6875 70.125 C-4.15236718 73.24696336 -4.15236718 73.24696336 -4.3125 76.75 C-4.38726562 77.93851562 -4.46203125 79.12703125 -4.5390625 80.3515625 C-4.58804688 81.26679688 -4.63703125 82.18203125 -4.6875 83.125 C-5.0175 83.125 -5.3475 83.125 -5.6875 83.125 C-7.44484451 88.09861654 -9.01334613 92.8665998 -9.6875 98.125 C-11.1725 98.62 -11.1725 98.62 -12.6875 99.125 C-12.64625 99.970625 -12.605 100.81625 -12.5625 101.6875 C-12.6999128 105.46635205 -13.57372491 108.52161002 -14.6875 112.125 C-15.04121498 113.78746041 -15.38345322 115.45274271 -15.6875 117.125 C-16.3475 117.125 -17.0075 117.125 -17.6875 117.125 C-17.6875 117.785 -17.6875 118.445 -17.6875 119.125 C-22.65813121 120.03797308 -26.71686879 120.03797308 -31.6875 119.125 C-31.6875 118.465 -31.6875 117.805 -31.6875 117.125 C-32.656875 116.980625 -33.62625 116.83625 -34.625 116.6875 C-37.6875 116.125 -37.6875 116.125 -38.6875 115.125 C-39.12216591 108.93101085 -38.04235411 104.78304314 -35.6875 99.125 C-33.8865345 94.16177584 -32.36196144 89.38579921 -31.6875 84.125 C-31.0275 84.125 -30.3675 84.125 -29.6875 84.125 C-29.708125 82.990625 -29.72875 81.85625 -29.75 80.6875 C-29.6875 77.125 -29.6875 77.125 -28.6875 76.125 C-28.15067042 73.0619136 -27.72184671 69.98900749 -27.28515625 66.91015625 C-26.6875 64.125 -26.6875 64.125 -24.6875 62.125 C-24.08053602 60.13016988 -24.08053602 60.13016988 -23.6875 57.875 C-22.93528468 54.179593 -21.96398434 50.68092066 -20.6875 47.125 C-20.0275 47.125 -19.3675 47.125 -18.6875 47.125 C-18.708125 46.155625 -18.72875 45.18625 -18.75 44.1875 C-18.6875 41.125 -18.6875 41.125 -17.6875 40.125 C-17.334747 38.29898448 -17.03087344 36.46344431 -16.75 34.625 C-15.91866075 29.39943899 -14.88961233 24.27690997 -13.6875 19.125 C-13.3575 19.125 -13.0275 19.125 -12.6875 19.125 C-12.419375 17.990625 -12.15125 16.85625 -11.875 15.6875 C-11.483125 14.511875 -11.09125 13.33625 -10.6875 12.125 C-9.6975 11.795 -8.7075 11.465 -7.6875 11.125 C-7.73970703 10.18527344 -7.73970703 10.18527344 -7.79296875 9.2265625 C-7.82003906 8.40929687 -7.84710938 7.59203125 -7.875 6.75 C-7.92720703 5.53183594 -7.92720703 5.53183594 -7.98046875 4.2890625 C-7.88378906 3.57492187 -7.78710938 2.86078125 -7.6875 2.125 C-4.48369983 -0.01086678 -3.66810033 -0.10632175 0 0 Z " fill="#CCF301" transform="translate(410.6875,262.875)"/>
<path d="M0 0 C0 0.66 0 1.32 0 2 C0.66 2 1.32 2 2 2 C2.3403125 3.175625 2.3403125 3.175625 2.6875 4.375 C4.34316347 7.68632694 5.59031406 7.835717 9 9 C10.8125 10.5 10.8125 10.5 12 12 C12 12.66 12 13.32 12 14 C12.5775 14.268125 13.155 14.53625 13.75 14.8125 C16.05550043 16.02929189 18.02056192 17.30333879 20 19 C20 19.66 20 20.32 20 21 C20.99 21.33 21.98 21.66 23 22 C24.71108689 23.62102968 26.37253306 25.29503463 28 27 C29.36125 28.299375 29.36125 28.299375 30.75 29.625 C33 32 33 32 34 35 C34.598125 35.144375 35.19625 35.28875 35.8125 35.4375 C38.75254091 36.19351052 39.94788719 37.81549282 42 40 C42.99 40.66 43.98 41.32 45 42 C45.29296875 44.3828125 45.29296875 44.3828125 45.1875 47.125 C45.14689453 48.49011719 45.14689453 48.49011719 45.10546875 49.8828125 C45.07066406 50.58148438 45.03585937 51.28015625 45 52 C43.35 52.66 41.7 53.32 40 54 C40 54.66 40 55.32 40 56 C39.38125 56.0825 38.7625 56.165 38.125 56.25 C35.8653367 56.77905978 35.8653367 56.77905978 35.0625 58.75 C34.5365625 59.86375 34.5365625 59.86375 34 61 C32.37550757 62.70779973 30.70779973 64.37550757 29 66 C28.484375 66.515625 27.96875 67.03125 27.4375 67.5625 C26.963125 68.036875 26.48875 68.51125 26 69 C25.360625 69.70125 24.72125 70.4025 24.0625 71.125 C21.95217459 73.04347765 20.77687133 73.6033041 18 74 C18 74.66 18 75.32 18 76 C17.34 76 16.68 76 16 76 C16 76.66 16 77.32 16 78 C15.34 78 14.68 78 14 78 C14 78.66 14 79.32 14 80 C13.34 80 12.68 80 12 80 C12 80.66 12 81.32 12 82 C10.35546875 83.33203125 10.35546875 83.33203125 8.1875 84.8125 C5.47621074 86.75116662 4.10731322 87.81112873 2.4375 90.75 C1 93 1 93 -2.25 94.5 C-6.96524448 95.12869926 -8.95161222 94.47401475 -13 92 C-16.5532477 88.67430018 -17.87498141 85.96889405 -18.5 81.125 C-17.47277936 75.83481369 -12.96256869 73.20881766 -8.859375 70.17578125 C-5.96463281 67.97308808 -3.52032124 65.61819779 -1 63 C9.29765612 52.53860023 9.29765612 52.53860023 15 48 C15.66 48 16.32 48 17 48 C17 47.34 17 46.68 17 46 C16.43796875 45.7525 15.8759375 45.505 15.296875 45.25 C12.60907431 43.78725133 10.53594518 42.03195127 8.25 40 C7.05117188 38.948125 7.05117188 38.948125 5.828125 37.875 C4 36 4 36 4 34 C3.41089844 33.72800781 2.82179688 33.45601563 2.21484375 33.17578125 C-3.30173304 30.24722814 -7.62766193 25.37233807 -12 21 C-12.9075 20.38125 -13.815 19.7625 -14.75 19.125 C-17 17 -17 17 -17.9375 13.5625 C-18.00005194 9.99703966 -17.86759701 8.0237285 -16 5 C-13.875 4.1875 -13.875 4.1875 -12 4 C-11.67 2.68 -11.34 1.36 -11 0 C-6.98195309 -0.84098656 -3.98196457 -1.05404945 0 0 Z " fill="#CCF301" transform="translate(452,278)"/>
<path d="M0 0 C1.2065625 0.0309375 1.2065625 0.0309375 2.4375 0.0625 C2.4375 0.7225 2.4375 1.3825 2.4375 2.0625 C4.17 1.9696875 4.17 1.9696875 5.9375 1.875 C10.64963121 1.84975644 14.13309472 3.21775488 18.4375 5.0625 C18.4375 5.7225 18.4375 6.3825 18.4375 7.0625 C19.7575 7.0625 21.0775 7.0625 22.4375 7.0625 C23.47453504 10.17360512 23.70812965 12.32706695 22.56640625 15.4296875 C19.32280496 21.75521525 19.32280496 21.75521525 15.8828125 22.94921875 C15.07585938 22.98660156 14.26890625 23.02398438 13.4375 23.0625 C12.7775 22.4025 12.1175 21.7425 11.4375 21.0625 C8.5281442 20.91732256 5.717554 20.87619204 2.8125 20.9375 C2.01070312 20.94652344 1.20890625 20.95554687 0.3828125 20.96484375 C-1.59908523 20.98843777 -3.58082981 21.02430935 -5.5625 21.0625 C-5.2325 22.3825 -4.9025 23.7025 -4.5625 25.0625 C-2.2525 25.7225 0.0575 26.3825 2.4375 27.0625 C2.4375 27.7225 2.4375 28.3825 2.4375 29.0625 C3.17097656 29.18109375 3.90445313 29.2996875 4.66015625 29.421875 C11.3536584 30.96580517 17.62512383 35.25012383 22.4375 40.0625 C25.67745121 45.57041706 26.32426639 50.81615656 25.4375 57.0625 C24.16978388 60.96966609 22.95821408 64.19669198 19.296875 66.28125 C18.68328125 66.5390625 18.0696875 66.796875 17.4375 67.0625 C17.4375 67.7225 17.4375 68.3825 17.4375 69.0625 C14.07066085 71.49410605 12.70399636 72.0625 8.4375 72.0625 C8.4375 72.7225 8.4375 73.3825 8.4375 74.0625 C4.79182287 74.15066905 1.14642526 74.20327948 -2.5 74.25 C-3.52158203 74.27513672 -4.54316406 74.30027344 -5.59570312 74.32617188 C-12.14461307 74.38894098 -17.54097175 73.69155378 -23.5625 71.0625 C-24.26366943 70.76110107 -24.96483887 70.45970215 -25.68725586 70.14916992 C-27.5625 69.0625 -27.5625 69.0625 -29.5625 66.0625 C-29.2415226 61.72930515 -28.80999519 56.30999519 -25.5625 53.0625 C-18.44056055 52.82899379 -18.44056055 52.82899379 -15.67407227 53.56469727 C-12.26011389 54.36953726 -8.79981919 54.16504872 -5.3125 54.125 C-4.56742188 54.12048828 -3.82234375 54.11597656 -3.0546875 54.11132812 C-1.2239236 54.09959246 0.60679873 54.0816585 2.4375 54.0625 C2.4375 52.4125 2.4375 50.7625 2.4375 49.0625 C0.7875 48.4025 -0.8625 47.7425 -2.5625 47.0625 C-2.5625 46.4025 -2.5625 45.7425 -2.5625 45.0625 C-4.1403125 44.876875 -4.1403125 44.876875 -5.75 44.6875 C-11.57281849 43.73293959 -14.538668 42.35458746 -18.5625 38.0625 C-19.5525 37.4025 -20.5425 36.7425 -21.5625 36.0625 C-23.81943432 33.80556568 -24.43542007 32.02108483 -25.5625 29.0625 C-25.92085937 28.44632813 -26.27921875 27.83015625 -26.6484375 27.1953125 C-27.7582416 24.60576959 -27.59420583 23.07809966 -27.1875 20.3125 C-27.07664062 19.51328125 -26.96578125 18.7140625 -26.8515625 17.890625 C-26.75617187 17.28734375 -26.66078125 16.6840625 -26.5625 16.0625 C-25.5725 15.7325 -24.5825 15.4025 -23.5625 15.0625 C-23.5625 14.36125 -23.5625 13.66 -23.5625 12.9375 C-21.817438 7.92044676 -17.02603343 5.44586877 -12.53125 2.921875 C-9.64350689 1.66135221 -6.66955182 1.47286533 -3.5625 1.0625 C-2.5625 0.0625 -2.5625 0.0625 0 0 Z " fill="#CCF301" transform="translate(934.5625,489.9375)"/>
<path d="M0 0 C1.4375 2.0625 1.4375 2.0625 2 4 C2.66 4 3.32 4 4 4 C4.66 4.99 5.32 5.98 6 7 C6.99 7.33 7.98 7.66 9 8 C9.8125 10.1875 9.8125 10.1875 10 13 C7.6875 15.8125 7.6875 15.8125 5 18 C4.34 18 3.68 18 3 18 C2.731875 18.639375 2.46375 19.27875 2.1875 19.9375 C1 22 1 22 -2 23 C-2.28875 23.5775 -2.5775 24.155 -2.875 24.75 C-4.39612622 27.79225245 -6.48713896 29.73842507 -9 32 C-9.66 32 -10.32 32 -11 32 C-11 32.66 -11 33.32 -11 34 C-12.47491646 35.27826093 -13.95536294 36.55158961 -15.48046875 37.76953125 C-17.06723251 39.01060791 -17.06723251 39.01060791 -18.625 40.625 C-20.28389205 42.28389205 -22.12448798 43.59336599 -24 45 C-25.01801357 45.98165594 -26.0246803 46.97591432 -27 48 C-25.68 48.33 -24.36 48.66 -23 49 C-22.67 50.32 -22.34 51.64 -22 53 C-21.34 53 -20.68 53 -20 53 C-20 53.66 -20 54.32 -20 55 C-19.401875 55.28875 -18.80375 55.5775 -18.1875 55.875 C-16 57 -16 57 -13 59 C-13 59.66 -13 60.32 -13 61 C-12.34 61 -11.68 61 -11 61 C-11 61.66 -11 62.32 -11 63 C-10.4121875 63.27070313 -9.824375 63.54140625 -9.21875 63.8203125 C-7.02448495 64.9869816 -5.363285 66.24039089 -3.5 67.875 C-2.89671875 68.40351563 -2.2934375 68.93203125 -1.671875 69.4765625 C0.28183115 71.25680876 2.13131809 73.13131809 4 75 C4.99 75.66 5.98 76.32 7 77 C7.9375 78.75 7.9375 78.75 8 81 C6.25 84 6.25 84 4 87 C3.46375 87.7425 2.9275 88.485 2.375 89.25 C-0.65592759 93.1075442 -3.29618365 93.78049206 -8 95 C-8 94.34 -8 93.68 -8 93 C-8.99 93 -9.98 93 -11 93 C-11 92.01 -11 91.02 -11 90 C-11.804375 89.731875 -12.60875 89.46375 -13.4375 89.1875 C-14.283125 88.795625 -15.12875 88.40375 -16 88 C-16.33 87.01 -16.66 86.02 -17 85 C-17.66 85 -18.32 85 -19 85 C-19 84.34 -19 83.68 -19 83 C-19.639375 82.731875 -20.27875 82.46375 -20.9375 82.1875 C-23 81 -23 81 -24 78 C-24.99 78 -25.98 78 -27 78 C-27 77.34 -27 76.68 -27 76 C-27.66 76 -28.32 76 -29 76 C-30.625 74.625 -30.625 74.625 -32 73 C-32 72.34 -32 71.68 -32 71 C-33.485 70.505 -33.485 70.505 -35 70 C-35 69.34 -35 68.68 -35 68 C-35.74378906 67.7628125 -36.48757813 67.525625 -37.25390625 67.28125 C-41.22152457 65.43007104 -43.16722413 62.47431199 -45.83984375 59.09375 C-48.39705523 56.61515081 -50.58887026 55.89281347 -54 55 C-54.27118644 42.77966102 -54.27118644 42.77966102 -51.22265625 38.51171875 C-46.05706522 34 -46.05706522 34 -43 34 C-42.67 33.01 -42.34 32.02 -42 31 C-41.34 31 -40.68 31 -40 31 C-39.77054687 30.43539063 -39.54109375 29.87078125 -39.3046875 29.2890625 C-37.65320633 26.39155363 -35.61675396 24.58578467 -33.125 22.375 C-32.26132812 21.59898437 -31.39765625 20.82296875 -30.5078125 20.0234375 C-28.36845321 18.29728779 -26.50660047 17.08425043 -24 16 C-24 15.34 -24 14.68 -24 14 C-23.34 14 -22.68 14 -22 14 C-22 13.34 -22 12.68 -22 12 C-21.34 12 -20.68 12 -20 12 C-19.67 11.01 -19.34 10.02 -19 9 C-17.35178756 7.96986723 -15.68496298 6.96885372 -14 6 C-13.67 5.34 -13.34 4.68 -13 4 C-12.34 4 -11.68 4 -11 4 C-10.896875 3.360625 -10.79375 2.72125 -10.6875 2.0625 C-10.460625 1.381875 -10.23375 0.70125 -10 0 C-6.21603308 -1.26132231 -3.85909105 -0.91214879 0 0 Z " fill="#CCF301" transform="translate(363,278)"/>
<path d="M0 0 C1.65 0 3.3 0 5 0 C5 0.66 5 1.32 5 2 C5.85271484 1.94779297 5.85271484 1.94779297 6.72265625 1.89453125 C12.33720226 1.69769408 15.99655005 2.44504683 21 5 C21 5.66 21 6.32 21 7 C22.65 7 24.3 7 26 7 C26 8.65 26 10.3 26 12 C25.34 12 24.68 12 24 12 C23.896875 13.258125 23.79375 14.51625 23.6875 15.8125 C23.35560322 18.37674362 23.10274153 19.83047647 21.75 22.0625 C20 23 20 23 17.375 22.75 C15 22 15 22 14 21 C12.00500882 20.76512459 10.00324911 20.58632629 8 20.4375 C6.906875 20.35371094 5.81375 20.26992188 4.6875 20.18359375 C1.23071821 19.94744732 0.09731476 20.40138593 -3 22 C-2.67 22.99 -2.34 23.98 -2 25 C1.51190809 26.22969878 1.51190809 26.22969878 5 27 C5 27.66 5 28.32 5 29 C5.721875 29.12375 6.44375 29.2475 7.1875 29.375 C9.95721894 29.9904931 12.3970354 30.88444374 15 32 C15 32.66 15 33.32 15 34 C15.99 34 16.98 34 18 34 C18 34.66 18 35.32 18 36 C18.86625 36.0928125 18.86625 36.0928125 19.75 36.1875 C23.63375512 37.58996713 25.30899784 40.75619611 27.25 44.25 C29.00198323 50.6739385 28.60861419 56.3027564 25.34375 62.14453125 C22.31466061 66.32714014 18.25331889 69.16445408 14 72 C12.68 72 11.36 72 10 72 C10 72.66 10 73.32 10 74 C6.50016197 74.08803772 3.00061362 74.14073608 -0.5 74.1875 C-1.48226562 74.21263672 -2.46453125 74.23777344 -3.4765625 74.26367188 C-9.73173059 74.32622356 -14.29212987 73.58892681 -20 71 C-20 70.34 -20 69.68 -20 69 C-21.65 69 -23.3 69 -25 69 C-26.27170568 62.525862 -25.68902652 59.02341941 -23 53 C-21.56260487 52.97287934 -20.12506137 52.95354933 -18.6875 52.9375 C-17.88699219 52.92589844 -17.08648438 52.91429687 -16.26171875 52.90234375 C-14 53 -14 53 -11 54 C-9.59175107 54.08021999 -8.18002769 54.10765977 -6.76953125 54.09765625 C-5.96708984 54.09443359 -5.16464844 54.09121094 -4.33789062 54.08789062 C-3.50451172 54.07951172 -2.67113281 54.07113281 -1.8125 54.0625 C-0.5450293 54.05573242 -0.5450293 54.05573242 0.74804688 54.04882812 C2.83206155 54.03705403 4.91603977 54.0191189 7 54 C6.34 51.69 5.68 49.38 5 47 C3.02 47 1.04 47 -1 47 C-1 46.34 -1 45.68 -1 45 C-2.3303125 44.814375 -2.3303125 44.814375 -3.6875 44.625 C-9.27872437 43.57005201 -12.65963454 41.6550446 -17 38 C-17.99 37.34 -18.98 36.68 -20 36 C-20 35.01 -20 34.02 -20 33 C-20.66 33 -21.32 33 -22 33 C-22 31.68 -22 30.36 -22 29 C-22.66 29 -23.32 29 -24 29 C-24 24.38 -24 19.76 -24 15 C-23.34 15 -22.68 15 -22 15 C-21.7525 14.236875 -21.505 13.47375 -21.25 12.6875 C-19.87869328 9.73919055 -18.7648921 8.64165468 -16 7 C-15.34 7 -14.68 7 -14 7 C-14 6.34 -14 5.68 -14 5 C-9.03006806 2.56574762 -5.65394631 1.65384002 0 2 C0 1.34 0 0.68 0 0 Z " fill="#CCF301" transform="translate(999,490)"/>
<path d="M0 0 C1.98 0 3.96 0 6 0 C6 0.66 6 1.32 6 2 C6.56847656 1.96519531 7.13695312 1.93039062 7.72265625 1.89453125 C13.33720226 1.69769408 16.99655005 2.44504683 22 5 C22 5.66 22 6.32 22 7 C23.65 7 25.3 7 27 7 C27.625 9.8125 27.625 9.8125 28 13 C27.34 13.99 26.68 14.98 26 16 C25.34 16 24.68 16 24 16 C23.855625 16.969375 23.71125 17.93875 23.5625 18.9375 C23 22 23 22 22 23 C19.32941149 23.14115161 16.67567762 23.04247107 14 23 C13.505 22.01 13.505 22.01 13 21 C10.20807795 20.94619422 7.4171859 20.90642331 4.625 20.875 C3.8309375 20.85824219 3.036875 20.84148437 2.21875 20.82421875 C0.14507985 20.80664527 -1.92883241 20.89664832 -4 21 C-4.66 21.66 -5.32 22.32 -6 23 C-6.99 23 -7.98 23 -9 23 C-9 23.66 -9 24.32 -9 25 C-9.66 25 -10.32 25 -11 25 C-11 25.66 -11 26.32 -11 27 C-11.66 27 -12.32 27 -13 27 C-13.7282448 31.99367864 -14.38487182 36.99109914 -15 42 C-14.34 42 -13.68 42 -13 42 C-12.731875 42.928125 -12.46375 43.85625 -12.1875 44.8125 C-11.06289965 47.8311641 -10.29293427 48.9155143 -8 51 C-8 51.66 -8 52.32 -8 53 C0.63303035 54.61219241 9.21534429 55.5909508 17 51 C19.98804118 51.17648308 20.88693875 51.87590838 22.921875 54.109375 C23.52515625 54.98078125 24.1284375 55.8521875 24.75 56.75 C25.36359375 57.61109375 25.9771875 58.4721875 26.609375 59.359375 C28.1069419 62.20306944 28.29562832 63.83905108 28 67 C27.34 67 26.68 67 26 67 C26 67.66 26 68.32 26 69 C24.68 69 23.36 69 22 69 C22 69.66 22 70.32 22 71 C15.94555469 74.17417521 10.83281836 74.45728611 4.0625 74.375 C3.11181641 74.38660156 2.16113281 74.39820313 1.18164062 74.41015625 C-6.21871668 74.37955519 -11.74124773 73.17250151 -18 69 C-18 68.34 -18 67.68 -18 67 C-18.8971875 66.814375 -18.8971875 66.814375 -19.8125 66.625 C-22 66 -22 66 -25 64 C-25 63.34 -25 62.68 -25 62 C-25.66 62 -26.32 62 -27 62 C-28.65625 60.0234375 -28.65625 60.0234375 -30.5 57.375 C-31.1084375 56.51648438 -31.716875 55.65796875 -32.34375 54.7734375 C-37.12074834 46.77421859 -37.31023157 37.07254482 -36 28 C-34.48550237 23.91878111 -32.5856196 20.49366458 -30 17 C-29.34 17 -28.68 17 -28 17 C-27.67 16.01 -27.34 15.02 -27 14 C-26.34 14 -25.68 14 -25 14 C-25 12.68 -25 11.36 -25 10 C-19.375 7 -19.375 7 -16 7 C-16 6.34 -16 5.68 -16 5 C-10.28264895 2.54970669 -6.20970773 1.66733709 0 2 C0 1.34 0 0.68 0 0 Z " fill="#CCF301" transform="translate(523,490)"/>
<path d="M0 0 C0.33 0 0.66 0 1 0 C1 3.3 1 6.6 1 10 C0.67 10 0.34 10 0 10 C0 6.7 0 3.4 0 0 Z " fill="#CCF301" transform="translate(416,100)"/>
<path d="M0 0 C0.33 0 0.66 0 1 0 C1 2.97 1 5.94 1 9 C0.67 9 0.34 9 0 9 C0 6.03 0 3.06 0 0 Z " fill="#CCF301" transform="translate(416,537)"/>
<path d="M0 0 C1 4 1 4 1 4 Z " fill="#CCF301" transform="translate(416,304)"/>
<path d="M0 0 C3 1 3 1 3 1 Z " fill="#CCF301" transform="translate(540,514)"/>
<path d="M0 0 C3 1 3 1 3 1 Z " fill="#CCF301" transform="translate(674,330)"/>
<path d="M0 0 C0.66 0 1.32 0 2 0 C1.67 0.66 1.34 1.32 1 2 C0.67 1.34 0.34 0.68 0 0 Z " fill="#CCF301" transform="translate(828,281)"/>
<path d="M0 0 C2 1 2 1 2 1 Z " fill="#CCF301" transform="translate(996,537)"/>
<path d="" fill="#CCF301" transform="translate(0,0)"/>
<path d="" fill="#CCF301" transform="translate(0,0)"/>
<path d="" fill="#CCF301" transform="translate(0,0)"/>
<path d="M0 0 C2 1 2 1 2 1 Z " fill="#CCF301" transform="translate(169,330)"/>
<path d="" fill="#CCF301" transform="translate(0,0)"/>
<path d="M0 0 C2 1 2 1 2 1 Z " fill="#CCF301" transform="translate(159,317)"/>
<path d="" fill="#CCF301" transform="translate(0,0)"/>
<path d="" fill="#CCF301" transform="translate(0,0)"/>
<path d="" fill="#CCF301" transform="translate(0,0)"/>
<path d="" fill="#CCF301" transform="translate(0,0)"/>
<path d="" fill="#CCF301" transform="translate(0,0)"/>
<path d="" fill="#CCF301" transform="translate(0,0)"/>
<path d="" fill="#CCF301" transform="translate(0,0)"/>
<path d="" fill="#CCF301" transform="translate(0,0)"/>
<path d="" fill="#CCF301" transform="translate(0,0)"/>
<path d="" fill="#CCF301" transform="translate(0,0)"/>
<path d="" fill="#CCF301" transform="translate(0,0)"/>
<path d="" fill="#CCF301" transform="translate(0,0)"/>
<path d="" fill="#CCF301" transform="translate(0,0)"/>
<path d="" fill="#CCF301" transform="translate(0,0)"/>
<path d="" fill="#CCF301" transform="translate(0,0)"/>
<path d="" fill="#CCF301" transform="translate(0,0)"/>
<path d="" fill="#CCF301" transform="translate(0,0)"/>
<path d="" fill="#CCF301" transform="translate(0,0)"/>
<path d="" fill="#CCF301" transform="translate(0,0)"/>
<path d="" fill="#CCF301" transform="translate(0,0)"/>
<path d="" fill="#CCF301" transform="translate(0,0)"/>
<path d="" fill="#CCF301" transform="translate(0,0)"/>
<path d="" fill="#CCF301" transform="translate(0,0)"/>
<path d="" fill="#CCF301" transform="translate(0,0)"/>
<path d="" fill="#CCF301" transform="translate(0,0)"/>
<path d="" fill="#CCF301" transform="translate(0,0)"/>
</svg>
